<svg width="240" height="240" viewBox="0 0 240 240" fill="none" xmlns="http://www.w3.org/2000/svg">
<path d="M145.792 228.584C121.208 227.834 100.958 222.792 81.5833 213.875C75.4166 211.042 68.9583 208.875 62.6666 206.459C54.3333 203.25 47.0416 198.334 43.2916 190.209C34.7083 171.584 25.7083 153 19.0416 133.625C12.8333 115.584 16.6666 97.5004 27.8333 82.0837C36.5 70.1254 41.75 57.292 45.5416 43.1254C50.2083 25.7504 63.0833 16.1254 80.5833 12.3754C88.625 10.667 96.25 11.2087 103.917 14.167C111.042 16.917 118.417 17.3754 125.875 15.3337C139.708 11.542 152.333 15.4587 164.708 21.417C170.5 24.167 176.417 27.0837 182.625 28.4587C203.083 32.9587 213.583 46.417 216.375 66.0004C217.75 75.7087 216.958 85.8337 216.25 95.7087C215.625 104.334 216.542 112.5 219.292 120.625C226.417 141.709 225.333 162.334 215.583 182.459C209.625 194.792 199.875 203.125 188.042 209.5C179.75 213.959 171.5 218.542 163.458 223.459C156.958 227.417 150 228.792 145.792 228.584ZM145.583 220.834C152 220.917 156.875 218.875 163.417 213.834C167.833 210.459 173.083 208.125 177.958 205.375C183.708 202.167 190.458 200 195.125 195.625C214.958 176.959 219.458 153.042 212.792 128C208.5 111.834 207.208 96.3337 209.083 80.0004C211.5 58.667 199.833 42.6254 179.375 36.9587C172.292 35.0004 165.5 31.667 158.833 28.4587C150.292 24.3754 141.5 20.8337 132.083 23.0837C119.833 26.0004 108.167 25.0837 96.4166 21.1254C92.5833 19.8337 88.2499 18.667 84.3333 19.1254C68.5833 20.9587 57.5416 30.2504 53.5833 45.0004C49.2916 61.042 42.0833 75.0004 33.1666 88.792C23.9166 103.125 21.4583 119.459 28.0416 135.917C34.5416 152.209 41.625 168.292 48.625 184.375C52.0833 192.375 58.1666 197.709 66.375 200.75C74.125 203.625 81.9583 206.334 89.4999 209.709C106.125 217.084 123.75 219.584 145.583 220.834Z" fill="black"/>
<path d="M127.792 164.708C110.125 165.458 93.9167 162.666 81.2917 149.5C79.1251 147.25 77.0834 144.75 75.7917 141.958C75.1667 140.666 74.6251 138.208 77.0417 136.875C78.5417 136.041 80.4584 136.917 81.6667 137.833C84.7084 140.083 87.2501 143.041 90.3334 145.291C104.833 156 120.875 159.333 138.25 154.25C147.042 151.708 153.167 145.25 158.583 138.167C160.583 135.583 162.792 131.667 166.417 134.375C170.042 137.125 166.792 140.458 164.917 142.958C155.458 155.541 144.042 164.791 127.792 164.708Z" fill="black"/>
<path d="M183.167 96.2915C183.125 101.375 179.25 105.458 174.667 105.375C169.917 105.291 165.958 101.083 166.083 96.2915C166.208 91.0415 169.875 86.8748 174.333 86.9581C179.333 86.9998 183.25 91.1248 183.167 96.2915Z" fill="black"/>
<path d="M74.2083 103.042C74.1666 108.125 70.2916 112.208 65.7083 112.125C60.9583 112.042 57 107.833 57.125 103.042C57.25 97.7918 60.9166 93.6252 65.375 93.7085C70.3333 93.7502 74.25 97.8752 74.2083 103.042Z" fill="black"/>
</svg>
