<svg width="24" height="24" viewBox="0 0 24 24" fill="none" xmlns="http://www.w3.org/2000/svg">
<g filter="url(#filter0_d_1287_5452)">
<path d="M12 15C8.13401 15 5 11.866 5 8C5 4.13401 8.13401 1 12 1C15.866 1 19 4.13401 19 8C19 11.866 15.866 15 12 15ZM12 16C16.4183 16 20 12.4183 20 8C20 3.58172 16.4183 0 12 0C7.58172 0 4 3.58172 4 8C4 12.4183 7.58172 16 12 16Z" fill="black"/>
<path d="M11 11.5C11 11.2239 11.2239 11 11.5 11H12.5C12.7761 11 13 11.2239 13 11.5C13 11.7761 12.7761 12 12.5 12H11.5C11.2239 12 11 11.7761 11 11.5Z" fill="black"/>
<path d="M9 8.5C9 8.22386 9.22386 8 9.5 8H14.5C14.7761 8 15 8.22386 15 8.5C15 8.77614 14.7761 9 14.5 9H9.5C9.22386 9 9 8.77614 9 8.5Z" fill="black"/>
<path d="M7 5.5C7 5.22386 7.22386 5 7.5 5H16.5C16.7761 5 17 5.22386 17 5.5C17 5.77614 16.7761 6 16.5 6H7.5C7.22386 6 7 5.77614 7 5.5Z" fill="black"/>
</g>
<defs>
<filter id="filter0_d_1287_5452" x="0" y="0" width="24" height="24" filterUnits="userSpaceOnUse" color-interpolation-filters="sRGB">
<feFlood flood-opacity="0" result="BackgroundImageFix"/>
<feColorMatrix in="SourceAlpha" type="matrix" values="0 0 0 0 0 0 0 0 0 0 0 0 0 0 0 0 0 0 127 0" result="hardAlpha"/>
<feOffset dy="4"/>
<feGaussianBlur stdDeviation="2"/>
<feComposite in2="hardAlpha" operator="out"/>
<feColorMatrix type="matrix" values="0 0 0 0 0 0 0 0 0 0 0 0 0 0 0 0 0 0 0.25 0"/>
<feBlend mode="normal" in2="BackgroundImageFix" result="effect1_dropShadow_1287_5452"/>
<feBlend mode="normal" in="SourceGraphic" in2="effect1_dropShadow_1287_5452" result="shape"/>
</filter>
</defs>
</svg>
