<svg width="400" height="101" viewBox="0 0 400 101" fill="none" xmlns="http://www.w3.org/2000/svg">
<mask id="path-1-outside-1_1_19" maskUnits="userSpaceOnUse" x="2" y="23" width="24" height="33" fill="black">
<rect fill="white" x="2" y="23" width="24" height="33"/>
<path d="M23.568 24.912C23.792 25.264 23.984 25.744 24.144 26.352C24.336 26.928 24.432 27.536 24.432 28.176C24.432 29.424 24.16 30.32 23.616 30.864C23.104 31.376 22.4 31.632 21.504 31.632H11.424V37.056H21.936C22.192 37.408 22.4 37.872 22.56 38.448C22.752 39.024 22.848 39.632 22.848 40.272C22.848 41.488 22.576 42.368 22.032 42.912C21.52 43.424 20.816 43.68 19.92 43.68H11.52V53.808C11.168 53.904 10.608 54 9.84 54.096C9.104 54.192 8.368 54.24 7.632 54.24C6.896 54.24 6.24 54.176 5.664 54.048C5.12 53.952 4.656 53.76 4.272 53.472C3.888 53.184 3.6 52.784 3.408 52.272C3.216 51.76 3.12 51.088 3.12 50.256V29.376C3.12 28 3.52 26.912 4.32 26.112C5.12 25.312 6.208 24.912 7.584 24.912H23.568Z"/>
</mask>
<path d="M23.568 24.912C23.792 25.264 23.984 25.744 24.144 26.352C24.336 26.928 24.432 27.536 24.432 28.176C24.432 29.424 24.16 30.32 23.616 30.864C23.104 31.376 22.4 31.632 21.504 31.632H11.424V37.056H21.936C22.192 37.408 22.4 37.872 22.56 38.448C22.752 39.024 22.848 39.632 22.848 40.272C22.848 41.488 22.576 42.368 22.032 42.912C21.52 43.424 20.816 43.68 19.92 43.68H11.52V53.808C11.168 53.904 10.608 54 9.84 54.096C9.104 54.192 8.368 54.24 7.632 54.24C6.896 54.24 6.24 54.176 5.664 54.048C5.12 53.952 4.656 53.76 4.272 53.472C3.888 53.184 3.6 52.784 3.408 52.272C3.216 51.76 3.12 51.088 3.12 50.256V29.376C3.12 28 3.52 26.912 4.32 26.112C5.12 25.312 6.208 24.912 7.584 24.912H23.568Z" fill="#FFDF36"/>
<path d="M23.568 24.912L24.4117 24.3751L24.1169 23.912H23.568V24.912ZM24.144 26.352L23.1769 26.6065L23.1851 26.6377L23.1953 26.6682L24.144 26.352ZM11.424 31.632V30.632H10.424V31.632H11.424ZM11.424 37.056H10.424V38.056H11.424V37.056ZM21.936 37.056L22.7447 36.4678L22.4452 36.056H21.936V37.056ZM22.56 38.448L21.5965 38.7156L21.6033 38.7401L21.6113 38.7642L22.56 38.448ZM22.032 42.912L22.7391 43.6191L22.7391 43.6191L22.032 42.912ZM11.52 43.68V42.68H10.52V43.68H11.52ZM11.52 53.808L11.7831 54.7728L12.52 54.5718V53.808H11.52ZM9.84 54.096L9.71596 53.1037L9.71066 53.1044L9.84 54.096ZM5.664 54.048L5.88093 53.0718L5.85945 53.067L5.83779 53.0632L5.664 54.048ZM4.272 53.472L3.672 54.272L3.672 54.272L4.272 53.472ZM3.408 52.272L2.47167 52.6231L2.47167 52.6231L3.408 52.272ZM22.7243 25.4489C22.8723 25.6814 23.0313 26.0531 23.1769 26.6065L25.1111 26.0975C24.9367 25.4349 24.7117 24.8466 24.4117 24.3751L22.7243 25.4489ZM23.1953 26.6682C23.3515 27.1369 23.432 27.6376 23.432 28.176H25.432C25.432 27.4344 25.3205 26.7191 25.0927 26.0358L23.1953 26.6682ZM23.432 28.176C23.432 29.3167 23.1774 29.8884 22.9089 30.1569L24.3231 31.5711C25.1426 30.7516 25.432 29.5313 25.432 28.176H23.432ZM22.9089 30.1569C22.6269 30.4389 22.2015 30.632 21.504 30.632V32.632C22.5985 32.632 23.5811 32.3131 24.3231 31.5711L22.9089 30.1569ZM21.504 30.632H11.424V32.632H21.504V30.632ZM10.424 31.632V37.056H12.424V31.632H10.424ZM11.424 38.056H21.936V36.056H11.424V38.056ZM21.1273 37.6442C21.292 37.8707 21.4574 38.2148 21.5965 38.7156L23.5235 38.1804C23.3426 37.5292 23.092 36.9453 22.7447 36.4678L21.1273 37.6442ZM21.6113 38.7642C21.7675 39.2329 21.848 39.7336 21.848 40.272H23.848C23.848 39.5304 23.7365 38.8151 23.5087 38.1318L21.6113 38.7642ZM21.848 40.272C21.848 41.3717 21.5973 41.9325 21.3249 42.2049L22.7391 43.6191C23.5547 42.8035 23.848 41.6043 23.848 40.272H21.848ZM21.3249 42.2049C21.0429 42.4869 20.6175 42.68 19.92 42.68V44.68C21.0145 44.68 21.9971 44.3611 22.7391 43.6191L21.3249 42.2049ZM19.92 42.68H11.52V44.68H19.92V42.68ZM10.52 43.68V53.808H12.52V43.68H10.52ZM11.2569 52.8432C10.9775 52.9194 10.4769 53.0086 9.71597 53.1037L9.96404 55.0883C10.7391 54.9914 11.3585 54.8886 11.7831 54.7728L11.2569 52.8432ZM9.71066 53.1044C9.01718 53.1949 8.32439 53.24 7.632 53.24V55.24C8.41162 55.24 9.19082 55.1891 9.96934 55.0876L9.71066 53.1044ZM7.632 53.24C6.95187 53.24 6.37076 53.1807 5.88093 53.0718L5.44707 55.0242C6.10924 55.1713 6.84013 55.24 7.632 55.24V53.24ZM5.83779 53.0632C5.42499 52.9904 5.11268 52.8525 4.872 52.672L3.672 54.272C4.19932 54.6675 4.81501 54.9136 5.49022 55.0328L5.83779 53.0632ZM4.872 52.672C4.66107 52.5138 4.47891 52.2798 4.34433 51.9209L2.47167 52.6231C2.72109 53.2882 3.11493 53.8542 3.672 54.272L4.872 52.672ZM4.34433 51.9209C4.21042 51.5638 4.12 51.0241 4.12 50.256H2.12C2.12 51.1519 2.22158 51.9562 2.47167 52.6231L4.34433 51.9209ZM4.12 50.256V29.376H2.12V50.256H4.12ZM4.12 29.376C4.12 28.2041 4.45384 27.3924 5.02711 26.8191L3.61289 25.4049C2.58616 26.4316 2.12 27.7959 2.12 29.376H4.12ZM5.02711 26.8191C5.60037 26.2458 6.4121 25.912 7.584 25.912V23.912C6.0039 23.912 4.63963 24.3782 3.61289 25.4049L5.02711 26.8191ZM7.584 25.912H23.568V23.912H7.584V25.912Z" fill="#FFDF36" mask="url(#path-1-outside-1_1_19)"/>
<mask id="path-3-outside-2_1_19" maskUnits="userSpaceOnUse" x="28" y="36" width="27" height="33" fill="black">
<rect fill="white" x="28" y="36" width="27" height="33"/>
<path d="M37.472 57.592V66.808C37.12 66.904 36.56 67 35.792 67.096C35.056 67.192 34.32 67.24 33.584 67.24C32.848 67.24 32.192 67.176 31.616 67.048C31.072 66.952 30.608 66.76 30.224 66.472C29.872 66.184 29.6 65.784 29.408 65.272C29.216 64.76 29.12 64.088 29.12 63.256V40.648C29.12 39.976 29.296 39.464 29.648 39.112C30.032 38.728 30.544 38.424 31.184 38.2C32.272 37.816 33.536 37.544 34.976 37.384C36.416 37.192 37.952 37.096 39.584 37.096C44 37.096 47.328 38.024 49.568 39.88C51.808 41.736 52.928 44.248 52.928 47.416C52.928 49.4 52.416 51.096 51.392 52.504C50.368 53.912 49.152 55 47.744 55.768C48.896 57.336 50.032 58.808 51.152 60.184C52.272 61.56 53.152 62.808 53.792 63.928C53.472 65.048 52.88 65.912 52.016 66.52C51.184 67.096 50.24 67.384 49.184 67.384C48.48 67.384 47.872 67.304 47.36 67.144C46.848 66.984 46.4 66.76 46.016 66.472C45.632 66.184 45.28 65.832 44.96 65.416C44.64 65 44.336 64.552 44.048 64.072L40.016 57.592H37.472ZM40.496 51.208C41.712 51.208 42.672 50.904 43.376 50.296C44.08 49.656 44.432 48.728 44.432 47.512C44.432 46.296 44.032 45.384 43.232 44.776C42.464 44.136 41.232 43.816 39.536 43.816C39.056 43.816 38.672 43.832 38.384 43.864C38.096 43.896 37.776 43.944 37.424 44.008V51.208H40.496Z"/>
</mask>
<path d="M37.472 57.592V66.808C37.12 66.904 36.56 67 35.792 67.096C35.056 67.192 34.32 67.24 33.584 67.24C32.848 67.24 32.192 67.176 31.616 67.048C31.072 66.952 30.608 66.76 30.224 66.472C29.872 66.184 29.6 65.784 29.408 65.272C29.216 64.76 29.12 64.088 29.12 63.256V40.648C29.12 39.976 29.296 39.464 29.648 39.112C30.032 38.728 30.544 38.424 31.184 38.2C32.272 37.816 33.536 37.544 34.976 37.384C36.416 37.192 37.952 37.096 39.584 37.096C44 37.096 47.328 38.024 49.568 39.88C51.808 41.736 52.928 44.248 52.928 47.416C52.928 49.4 52.416 51.096 51.392 52.504C50.368 53.912 49.152 55 47.744 55.768C48.896 57.336 50.032 58.808 51.152 60.184C52.272 61.56 53.152 62.808 53.792 63.928C53.472 65.048 52.88 65.912 52.016 66.52C51.184 67.096 50.24 67.384 49.184 67.384C48.48 67.384 47.872 67.304 47.36 67.144C46.848 66.984 46.4 66.76 46.016 66.472C45.632 66.184 45.28 65.832 44.96 65.416C44.64 65 44.336 64.552 44.048 64.072L40.016 57.592H37.472ZM40.496 51.208C41.712 51.208 42.672 50.904 43.376 50.296C44.08 49.656 44.432 48.728 44.432 47.512C44.432 46.296 44.032 45.384 43.232 44.776C42.464 44.136 41.232 43.816 39.536 43.816C39.056 43.816 38.672 43.832 38.384 43.864C38.096 43.896 37.776 43.944 37.424 44.008V51.208H40.496Z" fill="#FFDF36"/>
<path d="M37.472 57.592V56.592H36.472V57.592H37.472ZM37.472 66.808L37.7351 67.7728L38.472 67.5718V66.808H37.472ZM35.792 67.096L35.668 66.1037L35.6627 66.1044L35.792 67.096ZM31.616 67.048L31.8329 66.0718L31.8115 66.067L31.7898 66.0632L31.616 67.048ZM30.224 66.472L29.5908 67.246L29.6071 67.2593L29.624 67.272L30.224 66.472ZM29.408 65.272L28.4717 65.6231L28.4717 65.6231L29.408 65.272ZM29.648 39.112L30.3551 39.8191L30.3551 39.8191L29.648 39.112ZM31.184 38.2L31.5144 39.1439L31.5168 39.143L31.184 38.2ZM34.976 37.384L35.0864 38.3779L35.0973 38.3767L35.1082 38.3752L34.976 37.384ZM49.568 39.88L48.93 40.65L48.93 40.65L49.568 39.88ZM51.392 52.504L52.2007 53.0922L52.2007 53.0922L51.392 52.504ZM47.744 55.768L47.2651 54.8901L46.2607 55.438L46.9381 56.3601L47.744 55.768ZM51.152 60.184L51.9276 59.5527L51.9276 59.5527L51.152 60.184ZM53.792 63.928L54.7535 64.2027L54.8693 63.7976L54.6602 63.4319L53.792 63.928ZM52.016 66.52L52.5852 67.3422L52.5915 67.3378L52.016 66.52ZM47.36 67.144L47.6583 66.1895L47.36 67.144ZM46.016 66.472L46.616 65.672L46.016 66.472ZM44.96 65.416L44.1674 66.0257L44.1674 66.0257L44.96 65.416ZM44.048 64.072L44.9055 63.5575L44.9013 63.5506L44.8971 63.5437L44.048 64.072ZM40.016 57.592L40.8651 57.0637L40.5716 56.592H40.016V57.592ZM43.376 50.296L44.0296 51.0528L44.0393 51.0445L44.0487 51.0359L43.376 50.296ZM43.232 44.776L42.5918 45.5442L42.6091 45.5586L42.6269 45.5722L43.232 44.776ZM37.424 44.008L37.2451 43.0241L36.424 43.1734V44.008H37.424ZM37.424 51.208H36.424V52.208H37.424V51.208ZM36.472 57.592V66.808H38.472V57.592H36.472ZM37.2089 65.8432C36.9295 65.9194 36.4289 66.0086 35.668 66.1037L35.916 68.0883C36.6911 67.9914 37.3105 67.8886 37.7351 67.7728L37.2089 65.8432ZM35.6627 66.1044C34.9692 66.1949 34.2764 66.24 33.584 66.24V68.24C34.3636 68.24 35.1428 68.1891 35.9213 68.0876L35.6627 66.1044ZM33.584 66.24C32.9039 66.24 32.3228 66.1807 31.8329 66.0718L31.3991 68.0242C32.0612 68.1713 32.7921 68.24 33.584 68.24V66.24ZM31.7898 66.0632C31.377 65.9904 31.0647 65.8525 30.824 65.672L29.624 67.272C30.1513 67.6675 30.767 67.9136 31.4422 68.0328L31.7898 66.0632ZM30.8572 65.698C30.667 65.5424 30.4869 65.3011 30.3443 64.9209L28.4717 65.6231C28.7131 66.2669 29.077 66.8256 29.5908 67.246L30.8572 65.698ZM30.3443 64.9209C30.2104 64.5638 30.12 64.0241 30.12 63.256H28.12C28.12 64.1519 28.2216 64.9562 28.4717 65.6231L30.3443 64.9209ZM30.12 63.256V40.648H28.12V63.256H30.12ZM30.12 40.648C30.12 40.1458 30.2488 39.9254 30.3551 39.8191L28.9409 38.4049C28.3432 39.0026 28.12 39.8062 28.12 40.648H30.12ZM30.3551 39.8191C30.6099 39.5644 30.9818 39.3303 31.5143 39.1439L30.8537 37.2561C30.1062 37.5177 29.4541 37.8916 28.9409 38.4049L30.3551 39.8191ZM31.5168 39.143C32.5173 38.7899 33.7039 38.5315 35.0864 38.3779L34.8656 36.3901C33.3681 36.5565 32.0267 36.8421 30.8512 37.257L31.5168 39.143ZM35.1082 38.3752C36.4994 38.1897 37.9909 38.096 39.584 38.096V36.096C37.9131 36.096 36.3326 36.1943 34.8438 36.3928L35.1082 38.3752ZM39.584 38.096C43.8826 38.096 46.9418 39.0027 48.93 40.65L50.206 39.11C47.7142 37.0453 44.1174 36.096 39.584 36.096V38.096ZM48.93 40.65C50.9185 42.2976 51.928 44.5156 51.928 47.416H53.928C53.928 43.9804 52.6975 41.1744 50.206 39.11L48.93 40.65ZM51.928 47.416C51.928 49.2194 51.466 50.702 50.5833 51.9158L52.2007 53.0922C53.366 51.49 53.928 49.5806 53.928 47.416H51.928ZM50.5833 51.9158C49.6388 53.2144 48.5322 54.199 47.2651 54.8901L48.2229 56.6459C49.7718 55.801 51.0972 54.6096 52.2007 53.0922L50.5833 51.9158ZM46.9381 56.3601C48.099 57.9401 49.2451 59.4253 50.3764 60.8153L51.9276 59.5527C50.8189 58.1907 49.693 56.7319 48.5499 55.1759L46.9381 56.3601ZM50.3764 60.8153C51.4737 62.1634 52.3188 63.3655 52.9238 64.4241L54.6602 63.4319C53.9852 62.2505 53.0703 60.9566 51.9276 59.5527L50.3764 60.8153ZM52.8305 63.6533C52.5664 64.5774 52.0981 65.2394 51.4405 65.7022L52.5915 67.3378C53.6619 66.5845 54.3776 65.5186 54.7535 64.2027L52.8305 63.6533ZM51.4468 65.6978C50.7896 66.1528 50.046 66.384 49.184 66.384V68.384C50.434 68.384 51.5784 68.0392 52.5852 67.3422L51.4468 65.6978ZM49.184 66.384C48.5515 66.384 48.049 66.3116 47.6583 66.1895L47.0617 68.0985C47.695 68.2964 48.4085 68.384 49.184 68.384V66.384ZM47.6583 66.1895C47.2422 66.0595 46.8989 65.8842 46.616 65.672L45.416 67.272C45.9011 67.6358 46.4538 67.9085 47.0617 68.0985L47.6583 66.1895ZM46.616 65.672C46.311 65.4432 46.0225 65.1571 45.7526 64.8063L44.1674 66.0257C44.5375 66.5069 44.953 66.9248 45.416 67.272L46.616 65.672ZM45.7526 64.8063C45.4575 64.4227 45.175 64.0067 44.9055 63.5575L43.1905 64.5865C43.497 65.0973 43.8225 65.5773 44.1674 66.0257L45.7526 64.8063ZM44.8971 63.5437L40.8651 57.0637L39.1669 58.1203L43.1989 64.6003L44.8971 63.5437ZM40.016 56.592H37.472V58.592H40.016V56.592ZM40.496 52.208C41.8769 52.208 43.0943 51.8606 44.0296 51.0528L42.7224 49.5392C42.2497 49.9474 41.5471 50.208 40.496 50.208V52.208ZM44.0487 51.0359C45.0158 50.1568 45.432 48.9263 45.432 47.512H43.432C43.432 48.5297 43.1442 49.1552 42.7033 49.5561L44.0487 51.0359ZM45.432 47.512C45.432 46.0569 44.9391 44.8173 43.8371 43.9798L42.6269 45.5722C43.1249 45.9506 43.432 46.5351 43.432 47.512H45.432ZM43.8722 44.0078C42.8361 43.1444 41.3169 42.816 39.536 42.816V44.816C41.1471 44.816 42.0919 45.1276 42.5918 45.5442L43.8722 44.0078ZM39.536 42.816C39.0396 42.816 38.6142 42.8323 38.2736 42.8701L38.4944 44.8579C38.7298 44.8317 39.0724 44.816 39.536 44.816V42.816ZM38.2736 42.8701C37.9581 42.9052 37.6148 42.9569 37.2451 43.0241L37.6029 44.9919C37.9372 44.9311 38.2339 44.8868 38.4944 44.8579L38.2736 42.8701ZM36.424 44.008V51.208H38.424V44.008H36.424ZM37.424 52.208H40.496V50.208H37.424V52.208Z" fill="#FFDF36" mask="url(#path-3-outside-2_1_19)"/>
<mask id="path-5-outside-3_1_19" maskUnits="userSpaceOnUse" x="58" y="20" width="24" height="33" fill="black">
<rect fill="white" x="58" y="20" width="24" height="33"/>
<path d="M59.12 26.376C59.12 25 59.52 23.912 60.32 23.112C61.12 22.312 62.208 21.912 63.584 21.912H79.424C79.648 22.264 79.84 22.728 80 23.304C80.192 23.88 80.288 24.488 80.288 25.128C80.288 26.344 80.016 27.208 79.472 27.72C78.96 28.232 78.272 28.488 77.408 28.488H67.28V32.952H78.08C78.304 33.304 78.496 33.768 78.656 34.344C78.848 34.888 78.944 35.48 78.944 36.12C78.944 37.336 78.688 38.2 78.176 38.712C77.664 39.224 76.976 39.48 76.112 39.48H67.28V44.52H79.616C79.84 44.872 80.032 45.336 80.192 45.912C80.384 46.488 80.48 47.096 80.48 47.736C80.48 48.952 80.208 49.832 79.664 50.376C79.152 50.888 78.464 51.144 77.6 51.144H63.584C62.208 51.144 61.12 50.744 60.32 49.944C59.52 49.144 59.12 48.056 59.12 46.68V26.376Z"/>
</mask>
<path d="M59.12 26.376C59.12 25 59.52 23.912 60.32 23.112C61.12 22.312 62.208 21.912 63.584 21.912H79.424C79.648 22.264 79.84 22.728 80 23.304C80.192 23.88 80.288 24.488 80.288 25.128C80.288 26.344 80.016 27.208 79.472 27.72C78.96 28.232 78.272 28.488 77.408 28.488H67.28V32.952H78.08C78.304 33.304 78.496 33.768 78.656 34.344C78.848 34.888 78.944 35.48 78.944 36.12C78.944 37.336 78.688 38.2 78.176 38.712C77.664 39.224 76.976 39.48 76.112 39.48H67.28V44.52H79.616C79.84 44.872 80.032 45.336 80.192 45.912C80.384 46.488 80.48 47.096 80.48 47.736C80.48 48.952 80.208 49.832 79.664 50.376C79.152 50.888 78.464 51.144 77.6 51.144H63.584C62.208 51.144 61.12 50.744 60.32 49.944C59.52 49.144 59.12 48.056 59.12 46.68V26.376Z" fill="#FFDF36"/>
<path d="M79.424 21.912L80.2677 21.3751L79.9729 20.912H79.424V21.912ZM80 23.304L79.0365 23.5716L79.0433 23.5961L79.0513 23.6202L80 23.304ZM79.472 27.72L78.7866 26.9918L78.7756 27.0022L78.7649 27.0129L79.472 27.72ZM67.28 28.488V27.488H66.28V28.488H67.28ZM67.28 32.952H66.28V33.952H67.28V32.952ZM78.08 32.952L78.9237 32.4151L78.6289 31.952H78.08V32.952ZM78.656 34.344L77.6925 34.6116L77.7016 34.6446L77.713 34.6768L78.656 34.344ZM67.28 39.48V38.48H66.28V39.48H67.28ZM67.28 44.52H66.28V45.52H67.28V44.52ZM79.616 44.52L80.4597 43.9831L80.1649 43.52H79.616V44.52ZM80.192 45.912L79.2285 46.1796L79.2353 46.2041L79.2433 46.2282L80.192 45.912ZM79.664 50.376L78.9569 49.6689L78.9569 49.6689L79.664 50.376ZM60.32 49.944L61.0271 49.2369L61.0271 49.2369L60.32 49.944ZM60.12 26.376C60.12 25.2041 60.4538 24.3924 61.0271 23.8191L59.6129 22.4049C58.5862 23.4316 58.12 24.7959 58.12 26.376H60.12ZM61.0271 23.8191C61.6004 23.2458 62.4121 22.912 63.584 22.912V20.912C62.0039 20.912 60.6396 21.3782 59.6129 22.4049L61.0271 23.8191ZM63.584 22.912H79.424V20.912H63.584V22.912ZM78.5803 22.4489C78.7338 22.6901 78.8925 23.0533 79.0365 23.5716L80.9635 23.0364C80.7875 22.4027 80.5622 21.8379 80.2677 21.3751L78.5803 22.4489ZM79.0513 23.6202C79.2075 24.0889 79.288 24.5896 79.288 25.128H81.288C81.288 24.3864 81.1765 23.6711 80.9487 22.9878L79.0513 23.6202ZM79.288 25.128C79.288 26.2352 79.0342 26.7588 78.7866 26.9918L80.1574 28.4482C80.9978 27.6572 81.288 26.4528 81.288 25.128H79.288ZM78.7649 27.0129C78.476 27.3018 78.0617 27.488 77.408 27.488V29.488C78.4823 29.488 79.444 29.1622 80.1791 28.4271L78.7649 27.0129ZM77.408 27.488H67.28V29.488H77.408V27.488ZM66.28 28.488V32.952H68.28V28.488H66.28ZM67.28 33.952H78.08V31.952H67.28V33.952ZM77.2363 33.4889C77.3898 33.7301 77.5485 34.0933 77.6925 34.6116L79.6195 34.0764C79.4435 33.4427 79.2182 32.8779 78.9237 32.4151L77.2363 33.4889ZM77.713 34.6768C77.8634 35.1029 77.944 35.581 77.944 36.12H79.944C79.944 35.379 79.8326 34.6731 79.599 34.0112L77.713 34.6768ZM77.944 36.12C77.944 37.2406 77.7002 37.7735 77.4689 38.0049L78.8831 39.4191C79.6758 38.6265 79.944 37.4314 79.944 36.12H77.944ZM77.4689 38.0049C77.18 38.2938 76.7657 38.48 76.112 38.48V40.48C77.1863 40.48 78.148 40.1542 78.8831 39.4191L77.4689 38.0049ZM76.112 38.48H67.28V40.48H76.112V38.48ZM66.28 39.48V44.52H68.28V39.48H66.28ZM67.28 45.52H79.616V43.52H67.28V45.52ZM78.7723 45.0569C78.9258 45.2981 79.0845 45.6613 79.2285 46.1796L81.1555 45.6444C80.9795 45.0107 80.7542 44.4459 80.4597 43.9831L78.7723 45.0569ZM79.2433 46.2282C79.3995 46.6969 79.48 47.1976 79.48 47.736H81.48C81.48 46.9944 81.3685 46.2791 81.1407 45.5958L79.2433 46.2282ZM79.48 47.736C79.48 48.8357 79.2293 49.3965 78.9569 49.6689L80.3711 51.0831C81.1867 50.2675 81.48 49.0683 81.48 47.736H79.48ZM78.9569 49.6689C78.668 49.9578 78.2537 50.144 77.6 50.144V52.144C78.6743 52.144 79.636 51.8182 80.3711 51.0831L78.9569 49.6689ZM77.6 50.144H63.584V52.144H77.6V50.144ZM63.584 50.144C62.4121 50.144 61.6004 49.8102 61.0271 49.2369L59.6129 50.6511C60.6396 51.6778 62.0039 52.144 63.584 52.144V50.144ZM61.0271 49.2369C60.4538 48.6636 60.12 47.8519 60.12 46.68H58.12C58.12 48.2601 58.5862 49.6244 59.6129 50.6511L61.0271 49.2369ZM60.12 46.68V26.376H58.12V46.68H60.12Z" fill="#FFDF36" mask="url(#path-5-outside-3_1_19)"/>
<mask id="path-7-outside-4_1_19" maskUnits="userSpaceOnUse" x="83" y="24" width="31" height="33" fill="black">
<rect fill="white" x="83" y="24" width="31" height="33"/>
<path d="M92.312 26.776C92.856 26.456 93.672 26.152 94.76 25.864C95.88 25.576 97 25.432 98.12 25.432C99.72 25.432 101.128 25.672 102.344 26.152C103.592 26.6 104.392 27.32 104.744 28.312C105.32 29.976 105.944 31.912 106.616 34.12C107.288 36.328 107.96 38.616 108.632 40.984C109.304 43.32 109.96 45.64 110.6 47.944C111.24 50.216 111.8 52.232 112.28 53.992C111.896 54.44 111.32 54.792 110.552 55.048C109.784 55.336 108.872 55.48 107.816 55.48C107.048 55.48 106.392 55.416 105.848 55.288C105.336 55.16 104.904 54.968 104.552 54.712C104.232 54.456 103.96 54.12 103.736 53.704C103.544 53.288 103.368 52.808 103.208 52.264L102.344 48.952H93.656C93.4 49.912 93.144 50.904 92.888 51.928C92.632 52.952 92.376 53.944 92.12 54.904C91.672 55.064 91.192 55.192 90.68 55.288C90.2 55.416 89.608 55.48 88.904 55.48C87.272 55.48 86.056 55.208 85.256 54.664C84.488 54.088 84.104 53.304 84.104 52.312C84.104 51.864 84.168 51.416 84.296 50.968C84.424 50.52 84.568 49.992 84.728 49.384C84.952 48.52 85.256 47.448 85.64 46.168C86.056 44.888 86.504 43.512 86.984 42.04C87.464 40.536 87.976 39 88.52 37.432C89.064 35.864 89.576 34.392 90.056 33.016C90.536 31.608 90.968 30.36 91.352 29.272C91.768 28.184 92.088 27.352 92.312 26.776ZM98.072 32.968C97.624 34.312 97.112 35.816 96.536 37.48C95.992 39.112 95.496 40.776 95.048 42.472H101C100.552 40.744 100.088 39.064 99.608 37.432C99.16 35.768 98.744 34.28 98.36 32.968H98.072Z"/>
</mask>
<path d="M92.312 26.776C92.856 26.456 93.672 26.152 94.76 25.864C95.88 25.576 97 25.432 98.12 25.432C99.72 25.432 101.128 25.672 102.344 26.152C103.592 26.6 104.392 27.32 104.744 28.312C105.32 29.976 105.944 31.912 106.616 34.12C107.288 36.328 107.96 38.616 108.632 40.984C109.304 43.32 109.96 45.64 110.6 47.944C111.24 50.216 111.8 52.232 112.28 53.992C111.896 54.44 111.32 54.792 110.552 55.048C109.784 55.336 108.872 55.48 107.816 55.48C107.048 55.48 106.392 55.416 105.848 55.288C105.336 55.16 104.904 54.968 104.552 54.712C104.232 54.456 103.96 54.12 103.736 53.704C103.544 53.288 103.368 52.808 103.208 52.264L102.344 48.952H93.656C93.4 49.912 93.144 50.904 92.888 51.928C92.632 52.952 92.376 53.944 92.12 54.904C91.672 55.064 91.192 55.192 90.68 55.288C90.2 55.416 89.608 55.48 88.904 55.48C87.272 55.48 86.056 55.208 85.256 54.664C84.488 54.088 84.104 53.304 84.104 52.312C84.104 51.864 84.168 51.416 84.296 50.968C84.424 50.52 84.568 49.992 84.728 49.384C84.952 48.52 85.256 47.448 85.64 46.168C86.056 44.888 86.504 43.512 86.984 42.04C87.464 40.536 87.976 39 88.52 37.432C89.064 35.864 89.576 34.392 90.056 33.016C90.536 31.608 90.968 30.36 91.352 29.272C91.768 28.184 92.088 27.352 92.312 26.776ZM98.072 32.968C97.624 34.312 97.112 35.816 96.536 37.48C95.992 39.112 95.496 40.776 95.048 42.472H101C100.552 40.744 100.088 39.064 99.608 37.432C99.16 35.768 98.744 34.28 98.36 32.968H98.072Z" fill="#FFDF36"/>
<path d="M92.312 26.776L91.805 25.9141L91.5058 26.0901L91.38 26.4136L92.312 26.776ZM94.76 25.864L94.511 24.8955L94.5041 24.8973L94.76 25.864ZM102.344 26.152L101.977 27.0822L101.991 27.0879L102.006 27.0932L102.344 26.152ZM104.744 28.312L105.689 27.9849L105.686 27.9776L104.744 28.312ZM106.616 34.12L107.573 33.8288L107.573 33.8288L106.616 34.12ZM108.632 40.984L107.67 41.257L107.671 41.2605L108.632 40.984ZM110.6 47.944L109.636 48.2116L109.637 48.2151L110.6 47.944ZM112.28 53.992L113.039 54.6428L113.384 54.2403L113.245 53.7289L112.28 53.992ZM110.552 55.048L110.236 54.0993L110.218 54.1052L110.201 54.1117L110.552 55.048ZM105.848 55.288L105.605 56.2582L105.619 56.2614L105.848 55.288ZM104.552 54.712L103.927 55.4929L103.945 55.5072L103.964 55.5207L104.552 54.712ZM103.736 53.704L102.828 54.1231L102.841 54.151L102.856 54.1781L103.736 53.704ZM103.208 52.264L102.24 52.5164L102.244 52.5314L102.249 52.5462L103.208 52.264ZM102.344 48.952L103.312 48.6996L103.117 47.952H102.344V48.952ZM93.656 48.952V47.952H92.8877L92.6898 48.6943L93.656 48.952ZM92.888 51.928L91.9179 51.6855L91.9179 51.6855L92.888 51.928ZM92.12 54.904L92.4563 55.8457L92.9509 55.6691L93.0862 55.1617L92.12 54.904ZM90.68 55.288L90.4957 54.3051L90.4587 54.3121L90.4223 54.3218L90.68 55.288ZM85.256 54.664L84.656 55.464L84.6745 55.4779L84.6937 55.4909L85.256 54.664ZM84.296 50.968L83.3345 50.6933L83.3345 50.6933L84.296 50.968ZM84.728 49.384L85.6951 49.6385L85.696 49.635L84.728 49.384ZM85.64 46.168L84.689 45.8589L84.6854 45.8697L84.6822 45.8807L85.64 46.168ZM86.984 42.04L87.9347 42.35L87.9367 42.344L86.984 42.04ZM88.52 37.432L87.5752 37.1042L87.5752 37.1042L88.52 37.432ZM90.056 33.016L91.0002 33.3454L91.0025 33.3387L90.056 33.016ZM91.352 29.272L90.4179 28.9149L90.4133 28.927L90.409 28.9392L91.352 29.272ZM98.072 32.968V31.968H97.3512L97.1233 32.6518L98.072 32.968ZM96.536 37.48L95.591 37.1529L95.5873 37.1638L96.536 37.48ZM95.048 42.472L94.0812 42.2166L93.7496 43.472H95.048V42.472ZM101 42.472V43.472H102.292L101.968 42.221L101 42.472ZM99.608 37.432L98.6424 37.692L98.6454 37.7031L98.6486 37.7142L99.608 37.432ZM98.36 32.968L99.3197 32.6871L99.1093 31.968H98.36V32.968ZM92.819 27.6379C93.246 27.3868 93.9587 27.1106 95.0159 26.8307L94.5041 24.8973C93.3853 25.1934 92.466 25.5252 91.805 25.9141L92.819 27.6379ZM95.009 26.8325C96.0503 26.5647 97.0867 26.432 98.12 26.432V24.432C96.9133 24.432 95.7097 24.5873 94.511 24.8955L95.009 26.8325ZM98.12 26.432C99.6216 26.432 100.901 26.6574 101.977 27.0822L102.711 25.2218C101.355 24.6866 99.8184 24.432 98.12 24.432V26.432ZM102.006 27.0932C103.052 27.4685 103.575 28.0084 103.802 28.6464L105.686 27.9776C105.209 26.6316 104.132 25.7315 102.682 25.2108L102.006 27.0932ZM103.799 28.6391C104.37 30.2882 104.99 32.2118 105.659 34.4112L107.573 33.8288C106.898 31.6122 106.27 29.6638 105.689 27.9849L103.799 28.6391ZM105.659 34.4112C106.329 36.6127 107 38.8947 107.67 41.257L109.594 40.711C108.92 38.3373 108.247 36.0433 107.573 33.8288L105.659 34.4112ZM107.671 41.2605C108.342 43.5936 108.997 45.9106 109.636 48.2116L111.564 47.6764C110.923 45.3694 110.266 43.0464 109.593 40.7075L107.671 41.2605ZM109.637 48.2151C110.277 50.4852 110.836 52.4984 111.315 54.2551L113.245 53.7289C112.764 51.9656 112.203 49.9468 111.563 47.6729L109.637 48.2151ZM111.521 53.3412C111.291 53.6096 110.893 53.8802 110.236 54.0993L110.868 55.9967C111.747 55.7038 112.501 55.2704 113.039 54.6428L111.521 53.3412ZM110.201 54.1117C109.572 54.3474 108.785 54.48 107.816 54.48V56.48C108.959 56.48 109.996 56.3246 110.903 55.9843L110.201 54.1117ZM107.816 54.48C107.099 54.48 106.524 54.4197 106.077 54.3146L105.619 56.2614C106.26 56.4123 106.997 56.48 107.816 56.48V54.48ZM106.091 54.3179C105.677 54.2145 105.369 54.0696 105.14 53.9033L103.964 55.5207C104.439 55.8664 104.995 56.1055 105.605 56.2581L106.091 54.3179ZM105.177 53.9311C104.977 53.771 104.786 53.5454 104.616 53.2299L102.856 54.1781C103.134 54.6946 103.487 55.141 103.927 55.4929L105.177 53.9311ZM104.644 53.2849C104.477 52.9222 104.317 52.4895 104.167 51.9818L102.249 52.5462C102.419 53.1265 102.611 53.6538 102.828 54.1231L104.644 53.2849ZM104.176 52.0116L103.312 48.6996L101.376 49.2044L102.24 52.5164L104.176 52.0116ZM102.344 47.952H93.656V49.952H102.344V47.952ZM92.6898 48.6943C92.4323 49.6597 92.175 50.6567 91.9179 51.6855L93.8581 52.1705C94.113 51.1513 94.3677 50.1643 94.6222 49.2097L92.6898 48.6943ZM91.9179 51.6855C91.663 52.7047 91.4083 53.6917 91.1538 54.6463L93.0862 55.1617C93.3437 54.1963 93.601 53.1993 93.8581 52.1705L91.9179 51.6855ZM91.7837 53.9623C91.3896 54.103 90.9608 54.2179 90.4957 54.3051L90.8643 56.2709C91.4232 56.1661 91.9544 56.025 92.4563 55.8457L91.7837 53.9623ZM90.4223 54.3218C90.0532 54.4202 89.554 54.48 88.904 54.48V56.48C89.662 56.48 90.3468 56.4118 90.9377 56.2542L90.4223 54.3218ZM88.904 54.48C87.3491 54.48 86.3735 54.2146 85.8183 53.8371L84.6937 55.4909C85.7385 56.2014 87.1949 56.48 88.904 56.48V54.48ZM85.856 53.864C85.3495 53.4841 85.104 53.0016 85.104 52.312H83.104C83.104 53.6064 83.6265 54.6919 84.656 55.464L85.856 53.864ZM85.104 52.312C85.104 51.9606 85.154 51.605 85.2575 51.2427L83.3345 50.6933C83.182 51.227 83.104 51.7674 83.104 52.312H85.104ZM85.2575 51.2427C85.388 50.7861 85.5339 50.2511 85.6951 49.6385L83.7609 49.1295C83.6021 49.7329 83.46 50.2539 83.3345 50.6933L85.2575 51.2427ZM85.696 49.635C85.9157 48.7875 86.2159 47.7286 86.5978 46.4553L84.6822 45.8807C84.2961 47.1674 83.9883 48.2525 83.76 49.133L85.696 49.635ZM86.591 46.4771C87.0069 45.1974 87.4548 43.8218 87.9347 42.35L86.0333 41.73C85.5532 43.2022 85.1051 44.5786 84.689 45.8589L86.591 46.4771ZM87.9367 42.344C88.414 40.8484 88.9234 39.3203 89.4648 37.7598L87.5752 37.1042C87.0286 38.6797 86.514 40.2236 86.0313 41.736L87.9367 42.344ZM89.4648 37.7598C90.0086 36.1922 90.5204 34.7208 91.0002 33.3454L89.1118 32.6866C88.6316 34.0632 88.1194 35.5358 87.5752 37.1042L89.4648 37.7598ZM91.0025 33.3387C91.4817 31.9332 91.9125 30.6886 92.295 29.6048L90.409 28.9392C90.0235 30.0314 89.5903 31.2828 89.1095 32.6933L91.0025 33.3387ZM92.2861 29.6291C92.7019 28.5417 93.021 27.7118 93.244 27.1384L91.38 26.4136C91.155 26.9922 90.8341 27.8263 90.4179 28.9149L92.2861 29.6291ZM97.1233 32.6518C96.6768 33.9914 96.166 35.4917 95.591 37.1529L97.481 37.8071C98.058 36.1403 98.5712 34.6326 99.0207 33.2842L97.1233 32.6518ZM95.5873 37.1638C95.0365 38.8162 94.5345 40.5005 94.0812 42.2166L96.0148 42.7274C96.4575 41.0515 96.9475 39.4078 97.4847 37.7962L95.5873 37.1638ZM95.048 43.472H101V41.472H95.048V43.472ZM101.968 42.221C101.517 40.4831 101.051 38.7927 100.567 37.1498L98.6486 37.7142C99.1254 39.3353 99.5866 41.0049 100.032 42.723L101.968 42.221ZM100.574 37.172C100.124 35.5027 99.7062 34.0076 99.3197 32.6871L97.4003 33.2489C97.7818 34.5524 98.1958 36.0333 98.6424 37.692L100.574 37.172ZM98.36 31.968H98.072V33.968H98.36V31.968Z" fill="#FFDF36" mask="url(#path-7-outside-4_1_19)"/>
<mask id="path-9-outside-5_1_19" maskUnits="userSpaceOnUse" x="121" y="33" width="28" height="33" fill="black">
<rect fill="white" x="121" y="33" width="28" height="33"/>
<path d="M130.568 53.2V63.808C130.216 63.904 129.656 64 128.888 64.096C128.12 64.192 127.368 64.24 126.632 64.24C125.896 64.24 125.24 64.176 124.664 64.048C124.12 63.952 123.656 63.76 123.272 63.472C122.888 63.184 122.6 62.784 122.408 62.272C122.216 61.76 122.12 61.088 122.12 60.256V34.912C122.472 34.848 123.032 34.768 123.8 34.672C124.568 34.544 125.304 34.48 126.008 34.48C126.744 34.48 127.384 34.544 127.928 34.672C128.504 34.768 128.984 34.96 129.368 35.248C129.752 35.536 130.04 35.936 130.232 36.448C130.424 36.96 130.52 37.632 130.52 38.464V46.096L140.504 34.624C142.68 34.624 144.232 35.04 145.16 35.872C146.12 36.672 146.6 37.632 146.6 38.752C146.6 39.584 146.392 40.368 145.976 41.104C145.56 41.84 144.888 42.672 143.96 43.6L137.96 49.6C138.76 50.496 139.592 51.424 140.456 52.384C141.352 53.344 142.216 54.288 143.048 55.216C143.912 56.112 144.728 56.976 145.496 57.808C146.296 58.64 146.984 59.36 147.56 59.968C147.56 60.672 147.432 61.296 147.176 61.84C146.92 62.384 146.568 62.848 146.12 63.232C145.704 63.616 145.224 63.904 144.68 64.096C144.136 64.288 143.56 64.384 142.952 64.384C141.64 64.384 140.568 64.064 139.736 63.424C138.904 62.752 138.104 61.968 137.336 61.072L130.568 53.2Z"/>
</mask>
<path d="M130.568 53.2V63.808C130.216 63.904 129.656 64 128.888 64.096C128.12 64.192 127.368 64.24 126.632 64.24C125.896 64.24 125.24 64.176 124.664 64.048C124.12 63.952 123.656 63.76 123.272 63.472C122.888 63.184 122.6 62.784 122.408 62.272C122.216 61.76 122.12 61.088 122.12 60.256V34.912C122.472 34.848 123.032 34.768 123.8 34.672C124.568 34.544 125.304 34.48 126.008 34.48C126.744 34.48 127.384 34.544 127.928 34.672C128.504 34.768 128.984 34.96 129.368 35.248C129.752 35.536 130.04 35.936 130.232 36.448C130.424 36.96 130.52 37.632 130.52 38.464V46.096L140.504 34.624C142.68 34.624 144.232 35.04 145.16 35.872C146.12 36.672 146.6 37.632 146.6 38.752C146.6 39.584 146.392 40.368 145.976 41.104C145.56 41.84 144.888 42.672 143.96 43.6L137.96 49.6C138.76 50.496 139.592 51.424 140.456 52.384C141.352 53.344 142.216 54.288 143.048 55.216C143.912 56.112 144.728 56.976 145.496 57.808C146.296 58.64 146.984 59.36 147.56 59.968C147.56 60.672 147.432 61.296 147.176 61.84C146.92 62.384 146.568 62.848 146.12 63.232C145.704 63.616 145.224 63.904 144.68 64.096C144.136 64.288 143.56 64.384 142.952 64.384C141.64 64.384 140.568 64.064 139.736 63.424C138.904 62.752 138.104 61.968 137.336 61.072L130.568 53.2Z" fill="#FFDF36"/>
<path d="M130.568 53.2L131.326 52.5481L129.568 50.503V53.2H130.568ZM130.568 63.808L130.831 64.7728L131.568 64.5718V63.808H130.568ZM128.888 64.096L129.012 65.0883L129.012 65.0883L128.888 64.096ZM124.664 64.048L124.881 63.0718L124.859 63.067L124.838 63.0632L124.664 64.048ZM123.272 63.472L122.672 64.272L122.672 64.272L123.272 63.472ZM122.408 62.272L121.472 62.6231L121.472 62.6231L122.408 62.272ZM122.12 34.912L121.941 33.9281L121.12 34.0774V34.912H122.12ZM123.8 34.672L123.924 35.6643L123.944 35.6617L123.964 35.6584L123.8 34.672ZM127.928 34.672L127.699 35.6454L127.731 35.653L127.764 35.6584L127.928 34.672ZM129.368 35.248L128.768 36.048L128.768 36.048L129.368 35.248ZM130.232 36.448L129.296 36.7991L129.296 36.7991L130.232 36.448ZM130.52 46.096H129.52V48.7683L131.274 46.7525L130.52 46.096ZM140.504 34.624V33.624H140.049L139.75 33.9675L140.504 34.624ZM145.16 35.872L144.492 36.6166L144.506 36.6286L144.52 36.6402L145.16 35.872ZM145.976 41.104L145.105 40.6119L145.105 40.6119L145.976 41.104ZM143.96 43.6L144.667 44.3071L144.667 44.3071L143.96 43.6ZM137.96 49.6L137.253 48.8929L136.585 49.5611L137.214 50.266L137.96 49.6ZM140.456 52.384L139.713 53.053L139.719 53.0597L139.725 53.0663L140.456 52.384ZM143.048 55.216L142.303 55.8835L142.316 55.8971L142.328 55.9101L143.048 55.216ZM145.496 57.808L144.761 58.4863L144.768 58.4938L144.775 58.5011L145.496 57.808ZM147.56 59.968H148.56V59.5695L148.286 59.2803L147.56 59.968ZM147.176 61.84L146.271 61.4142L146.271 61.4142L147.176 61.84ZM146.12 63.232L145.469 62.4727L145.455 62.4847L145.442 62.4972L146.12 63.232ZM139.736 63.424L139.108 64.2019L139.117 64.2094L139.126 64.2166L139.736 63.424ZM137.336 61.072L138.095 60.4212L138.094 60.4201L137.336 61.072ZM129.568 53.2V63.808H131.568V53.2H129.568ZM130.305 62.8432C130.026 62.9194 129.525 63.0086 128.764 63.1037L129.012 65.0883C129.787 64.9914 130.406 64.8886 130.831 64.7728L130.305 62.8432ZM128.764 63.1037C128.035 63.1948 127.324 63.24 126.632 63.24V65.24C127.412 65.24 128.205 65.1892 129.012 65.0883L128.764 63.1037ZM126.632 63.24C125.952 63.24 125.371 63.1807 124.881 63.0718L124.447 65.0242C125.109 65.1713 125.84 65.24 126.632 65.24V63.24ZM124.838 63.0632C124.425 62.9904 124.113 62.8525 123.872 62.672L122.672 64.272C123.199 64.6675 123.815 64.9136 124.49 65.0328L124.838 63.0632ZM123.872 62.672C123.661 62.5138 123.479 62.2798 123.344 61.9209L121.472 62.6231C121.721 63.2882 122.115 63.8542 122.672 64.272L123.872 62.672ZM123.344 61.9209C123.21 61.5638 123.12 61.0241 123.12 60.256H121.12C121.12 61.1519 121.222 61.9562 121.472 62.6231L123.344 61.9209ZM123.12 60.256V34.912H121.12V60.256H123.12ZM122.299 35.8959C122.622 35.8372 123.158 35.76 123.924 35.6643L123.676 33.6797C122.906 33.776 122.322 33.8588 121.941 33.9281L122.299 35.8959ZM123.964 35.6584C124.684 35.5385 125.365 35.48 126.008 35.48V33.48C125.243 33.48 124.452 33.5495 123.636 33.6856L123.964 35.6584ZM126.008 35.48C126.69 35.48 127.249 35.5396 127.699 35.6454L128.157 33.6986C127.519 33.5484 126.798 33.48 126.008 33.48V35.48ZM127.764 35.6584C128.215 35.7337 128.537 35.8748 128.768 36.048L129.968 34.448C129.431 34.0452 128.793 33.8023 128.092 33.6856L127.764 35.6584ZM128.768 36.048C128.979 36.2062 129.161 36.4402 129.296 36.7991L131.168 36.0969C130.919 35.4318 130.525 34.8658 129.968 34.448L128.768 36.048ZM129.296 36.7991C129.43 37.1562 129.52 37.6959 129.52 38.464H131.52C131.52 37.5681 131.418 36.7638 131.168 36.0969L129.296 36.7991ZM129.52 38.464V46.096H131.52V38.464H129.52ZM131.274 46.7525L141.258 35.2805L139.75 33.9675L129.766 45.4395L131.274 46.7525ZM140.504 35.624C142.601 35.624 143.843 36.0342 144.492 36.6166L145.828 35.1274C144.621 34.0458 142.759 33.624 140.504 33.624V35.624ZM144.52 36.6402C145.282 37.275 145.6 37.9655 145.6 38.752H147.6C147.6 37.2985 146.958 36.069 145.8 35.1038L144.52 36.6402ZM145.6 38.752C145.6 39.4087 145.438 40.0235 145.105 40.6119L146.847 41.5961C147.346 40.7125 147.6 39.7593 147.6 38.752H145.6ZM145.105 40.6119C144.751 41.2384 144.148 41.9978 143.253 42.8929L144.667 44.3071C145.628 43.3462 146.369 42.4416 146.847 41.5961L145.105 40.6119ZM143.253 42.8929L137.253 48.8929L138.667 50.3071L144.667 44.3071L143.253 42.8929ZM137.214 50.266C138.015 51.1631 138.848 52.0921 139.713 53.053L141.199 51.715C140.336 50.7559 139.505 49.8289 138.706 48.934L137.214 50.266ZM139.725 53.0663C140.617 54.0217 141.476 54.9608 142.303 55.8835L143.793 54.5485C142.956 53.6152 142.087 52.6663 141.187 51.7017L139.725 53.0663ZM142.328 55.9101C143.188 56.8014 143.999 57.6601 144.761 58.4863L146.231 57.1297C145.457 56.2919 144.636 55.4226 143.768 54.5219L142.328 55.9101ZM144.775 58.5011C145.574 59.3319 146.26 60.0501 146.834 60.6557L148.286 59.2803C147.708 58.6699 147.018 57.9481 146.217 57.1149L144.775 58.5011ZM146.56 59.968C146.56 60.5498 146.455 61.0243 146.271 61.4142L148.081 62.2658C148.409 61.5677 148.56 60.7942 148.56 59.968H146.56ZM146.271 61.4142C146.074 61.8328 145.808 62.1825 145.469 62.4727L146.771 63.9913C147.328 63.5135 147.766 62.9352 148.081 62.2658L146.271 61.4142ZM145.442 62.4972C145.127 62.7873 144.766 63.0053 144.347 63.153L145.013 65.039C145.682 64.8027 146.281 64.4447 146.798 63.9668L145.442 62.4972ZM144.347 63.153C143.916 63.3053 143.453 63.384 142.952 63.384V65.384C143.667 65.384 144.356 65.2707 145.013 65.039L144.347 63.153ZM142.952 63.384C141.804 63.384 140.963 63.1063 140.346 62.6314L139.126 64.2166C140.173 65.0217 141.476 65.384 142.952 65.384V63.384ZM140.364 62.6461C139.584 62.0161 138.828 61.2756 138.095 60.4212L136.577 61.7228C137.38 62.6604 138.224 63.4879 139.108 64.2019L140.364 62.6461ZM138.094 60.4201L131.326 52.5481L129.81 53.8519L136.578 61.7239L138.094 60.4201Z" fill="#FFDF36" mask="url(#path-9-outside-5_1_19)"/>
<mask id="path-11-outside-6_1_19" maskUnits="userSpaceOnUse" x="154" y="24" width="29" height="33" fill="black">
<rect fill="white" x="154" y="24" width="29" height="33"/>
<path d="M173.384 54.808C173.032 54.904 172.488 55 171.752 55.096C171.016 55.192 170.296 55.24 169.592 55.24C168.12 55.24 167.016 55 166.28 54.52C165.544 54.008 165.176 52.952 165.176 51.352V44.872C164.376 43.688 163.512 42.376 162.584 40.936C161.656 39.496 160.744 38.024 159.848 36.52C158.952 35.016 158.12 33.544 157.352 32.104C156.584 30.632 155.96 29.288 155.48 28.072C155.896 27.496 156.456 26.968 157.16 26.488C157.896 26.008 158.792 25.768 159.848 25.768C161.096 25.768 162.104 26.024 162.872 26.536C163.672 27.048 164.424 28.008 165.128 29.416L169.112 37.432H169.4C169.848 36.44 170.232 35.544 170.552 34.744C170.904 33.912 171.24 33.096 171.56 32.296C171.88 31.464 172.216 30.616 172.568 29.752C172.92 28.856 173.32 27.832 173.768 26.68C174.344 26.392 174.984 26.168 175.688 26.008C176.392 25.848 177.064 25.768 177.704 25.768C178.824 25.768 179.768 26.072 180.536 26.68C181.336 27.256 181.736 28.136 181.736 29.32C181.736 29.704 181.656 30.168 181.496 30.712C181.336 31.256 180.968 32.088 180.392 33.208C179.816 34.296 178.968 35.784 177.848 37.672C176.76 39.56 175.272 42.024 173.384 45.064V54.808Z"/>
</mask>
<path d="M173.384 54.808C173.032 54.904 172.488 55 171.752 55.096C171.016 55.192 170.296 55.24 169.592 55.24C168.12 55.24 167.016 55 166.28 54.52C165.544 54.008 165.176 52.952 165.176 51.352V44.872C164.376 43.688 163.512 42.376 162.584 40.936C161.656 39.496 160.744 38.024 159.848 36.52C158.952 35.016 158.12 33.544 157.352 32.104C156.584 30.632 155.96 29.288 155.48 28.072C155.896 27.496 156.456 26.968 157.16 26.488C157.896 26.008 158.792 25.768 159.848 25.768C161.096 25.768 162.104 26.024 162.872 26.536C163.672 27.048 164.424 28.008 165.128 29.416L169.112 37.432H169.4C169.848 36.44 170.232 35.544 170.552 34.744C170.904 33.912 171.24 33.096 171.56 32.296C171.88 31.464 172.216 30.616 172.568 29.752C172.92 28.856 173.32 27.832 173.768 26.68C174.344 26.392 174.984 26.168 175.688 26.008C176.392 25.848 177.064 25.768 177.704 25.768C178.824 25.768 179.768 26.072 180.536 26.68C181.336 27.256 181.736 28.136 181.736 29.32C181.736 29.704 181.656 30.168 181.496 30.712C181.336 31.256 180.968 32.088 180.392 33.208C179.816 34.296 178.968 35.784 177.848 37.672C176.76 39.56 175.272 42.024 173.384 45.064V54.808Z" fill="#FFDF36"/>
<path d="M173.384 54.808L173.647 55.7728L174.384 55.5718V54.808H173.384ZM171.752 55.096L171.623 54.1044L171.752 55.096ZM166.28 54.52L165.709 55.3409L165.721 55.3494L165.734 55.3576L166.28 54.52ZM165.176 44.872H166.176V44.5658L166.005 44.3121L165.176 44.872ZM162.584 40.936L161.743 41.4777L161.743 41.4777L162.584 40.936ZM159.848 36.52L158.989 37.0318L158.989 37.0318L159.848 36.52ZM157.352 32.104L156.465 32.5666L156.47 32.5746L157.352 32.104ZM155.48 28.072L154.669 27.4865L154.349 27.9301L154.55 28.4392L155.48 28.072ZM157.16 26.488L156.614 25.6504L156.605 25.656L156.597 25.6618L157.16 26.488ZM162.872 26.536L162.317 27.368L162.325 27.3732L162.333 27.3783L162.872 26.536ZM165.128 29.416L166.024 28.9709L166.022 28.9688L165.128 29.416ZM169.112 37.432L168.217 37.8771L168.492 38.432H169.112V37.432ZM169.4 37.432V38.432H170.046L170.311 37.8436L169.4 37.432ZM170.552 34.744L169.631 34.3544L169.627 34.3634L169.624 34.3726L170.552 34.744ZM171.56 32.296L172.489 32.6674L172.493 32.655L171.56 32.296ZM172.568 29.752L173.494 30.1293L173.499 30.1177L172.568 29.752ZM173.768 26.68L173.321 25.7856L172.976 25.9581L172.836 26.3176L173.768 26.68ZM175.688 26.008L175.91 26.9831L175.91 26.9831L175.688 26.008ZM180.536 26.68L179.915 27.464L179.933 27.4782L179.952 27.4915L180.536 26.68ZM181.496 30.712L180.537 30.4298L180.537 30.4298L181.496 30.712ZM180.392 33.208L181.276 33.6759L181.281 33.6653L180.392 33.208ZM177.848 37.672L176.988 37.1618L176.982 37.1727L177.848 37.672ZM173.384 45.064L172.534 44.5364L172.384 44.7787V45.064H173.384ZM173.121 53.8432C172.838 53.9205 172.35 54.0096 171.623 54.1044L171.881 56.0876C172.626 55.9904 173.226 55.8875 173.647 55.7728L173.121 53.8432ZM171.623 54.1044C170.927 54.1951 170.25 54.24 169.592 54.24V56.24C170.342 56.24 171.105 56.1889 171.881 56.0876L171.623 54.1044ZM169.592 54.24C168.197 54.24 167.324 54.0067 166.826 53.6824L165.734 55.3576C166.708 55.9933 168.043 56.24 169.592 56.24V54.24ZM166.851 53.6991C166.538 53.4816 166.176 52.8745 166.176 51.352H164.176C164.176 53.0295 164.55 54.5344 165.709 55.3409L166.851 53.6991ZM166.176 51.352V44.872H164.176V51.352H166.176ZM166.005 44.3121C165.209 43.1352 164.349 41.8294 163.425 40.3943L161.743 41.4777C162.675 42.9226 163.543 44.2408 164.347 45.4319L166.005 44.3121ZM163.425 40.3943C162.503 38.9644 161.597 37.5023 160.707 36.0082L158.989 37.0318C159.891 38.5457 160.809 40.0276 161.743 41.4777L163.425 40.3943ZM160.707 36.0082C159.819 34.5168 158.994 33.0585 158.234 31.6334L156.47 32.5746C157.246 34.0295 158.085 35.5152 158.989 37.0318L160.707 36.0082ZM158.239 31.6414C157.483 30.1926 156.874 28.881 156.41 27.7048L154.55 28.4392C155.046 29.695 155.685 31.0714 156.465 32.5666L158.239 31.6414ZM156.291 28.6575C156.627 28.1921 157.097 27.7416 157.723 27.3142L156.597 25.6618C155.815 26.1944 155.165 26.7999 154.669 27.4865L156.291 28.6575ZM157.706 27.3256C158.25 26.9713 158.946 26.768 159.848 26.768V24.768C158.638 24.768 157.542 25.0447 156.614 25.6504L157.706 27.3256ZM159.848 26.768C160.966 26.768 161.762 26.9979 162.317 27.368L163.427 25.7039C162.446 25.0501 161.226 24.768 159.848 24.768V26.768ZM162.333 27.3783C162.912 27.7486 163.563 28.522 164.234 29.8632L166.022 28.9688C165.285 27.494 164.432 26.3474 163.411 25.6937L162.333 27.3783ZM164.233 29.8611L168.217 37.8771L170.007 36.9869L166.023 28.9709L164.233 29.8611ZM169.112 38.432H169.4V36.432H169.112V38.432ZM170.311 37.8436C170.764 36.8416 171.154 35.9319 171.48 35.1154L169.624 34.3726C169.31 35.1561 168.932 36.0384 168.489 37.0204L170.311 37.8436ZM171.473 35.1336C171.827 34.2959 172.166 33.4738 172.488 32.6674L170.632 31.9246C170.314 32.7182 169.981 33.5281 169.631 34.3544L171.473 35.1336ZM172.493 32.655C172.811 31.8294 173.144 30.9875 173.494 30.1293L171.642 29.3747C171.288 30.2445 170.949 31.0986 170.627 31.937L172.493 32.655ZM173.499 30.1177C173.851 29.2203 174.252 28.1952 174.7 27.0424L172.836 26.3176C172.388 27.4688 171.989 28.4917 171.637 29.3863L173.499 30.1177ZM174.215 27.5744C174.711 27.3263 175.275 27.1275 175.91 26.9831L175.466 25.0329C174.693 25.2085 173.977 25.4577 173.321 25.7856L174.215 27.5744ZM175.91 26.9831C176.55 26.8376 177.147 26.768 177.704 26.768V24.768C176.981 24.768 176.234 24.8584 175.466 25.0329L175.91 26.9831ZM177.704 26.768C178.633 26.768 179.349 27.0156 179.915 27.464L181.157 25.896C180.187 25.1284 179.015 24.768 177.704 24.768V26.768ZM179.952 27.4915C180.436 27.8406 180.736 28.3844 180.736 29.32H182.736C182.736 27.8876 182.236 26.6714 181.12 25.8685L179.952 27.4915ZM180.736 29.32C180.736 29.5748 180.681 29.9382 180.537 30.4298L182.455 30.9942C182.631 30.3978 182.736 29.8332 182.736 29.32H180.736ZM180.537 30.4298C180.405 30.876 180.076 31.6358 179.503 32.7507L181.281 33.6653C181.86 32.5402 182.267 31.636 182.455 30.9942L180.537 30.4298ZM179.508 32.7401C178.943 33.8069 178.105 35.2788 176.988 37.1618L178.708 38.1822C179.831 36.2892 180.689 34.7851 181.276 33.6759L179.508 32.7401ZM176.982 37.1727C175.901 39.0471 174.42 41.5007 172.534 44.5364L174.234 45.5916C176.124 42.5473 177.619 40.0729 178.714 38.1713L176.982 37.1727ZM172.384 45.064V54.808H174.384V45.064H172.384Z" fill="#FFDF36" mask="url(#path-11-outside-6_1_19)"/>
<mask id="path-13-outside-7_1_19" maskUnits="userSpaceOnUse" x="201" y="24" width="24" height="33" fill="black">
<rect fill="white" x="201" y="24" width="24" height="33"/>
<path d="M222.568 25.912C222.792 26.264 222.984 26.744 223.144 27.352C223.336 27.928 223.432 28.536 223.432 29.176C223.432 30.424 223.16 31.32 222.616 31.864C222.104 32.376 221.4 32.632 220.504 32.632H210.424V38.056H220.936C221.192 38.408 221.4 38.872 221.56 39.448C221.752 40.024 221.848 40.632 221.848 41.272C221.848 42.488 221.576 43.368 221.032 43.912C220.52 44.424 219.816 44.68 218.92 44.68H210.52V54.808C210.168 54.904 209.608 55 208.84 55.096C208.104 55.192 207.368 55.24 206.632 55.24C205.896 55.24 205.24 55.176 204.664 55.048C204.12 54.952 203.656 54.76 203.272 54.472C202.888 54.184 202.6 53.784 202.408 53.272C202.216 52.76 202.12 52.088 202.12 51.256V30.376C202.12 29 202.52 27.912 203.32 27.112C204.12 26.312 205.208 25.912 206.584 25.912H222.568Z"/>
</mask>
<path d="M222.568 25.912C222.792 26.264 222.984 26.744 223.144 27.352C223.336 27.928 223.432 28.536 223.432 29.176C223.432 30.424 223.16 31.32 222.616 31.864C222.104 32.376 221.4 32.632 220.504 32.632H210.424V38.056H220.936C221.192 38.408 221.4 38.872 221.56 39.448C221.752 40.024 221.848 40.632 221.848 41.272C221.848 42.488 221.576 43.368 221.032 43.912C220.52 44.424 219.816 44.68 218.92 44.68H210.52V54.808C210.168 54.904 209.608 55 208.84 55.096C208.104 55.192 207.368 55.24 206.632 55.24C205.896 55.24 205.24 55.176 204.664 55.048C204.12 54.952 203.656 54.76 203.272 54.472C202.888 54.184 202.6 53.784 202.408 53.272C202.216 52.76 202.12 52.088 202.12 51.256V30.376C202.12 29 202.52 27.912 203.32 27.112C204.12 26.312 205.208 25.912 206.584 25.912H222.568Z" fill="#FFDF36"/>
<path d="M222.568 25.912L223.412 25.3751L223.117 24.912H222.568V25.912ZM223.144 27.352L222.177 27.6065L222.185 27.6377L222.195 27.6682L223.144 27.352ZM210.424 32.632V31.632H209.424V32.632H210.424ZM210.424 38.056H209.424V39.056H210.424V38.056ZM220.936 38.056L221.745 37.4678L221.445 37.056H220.936V38.056ZM221.56 39.448L220.596 39.7156L220.603 39.7401L220.611 39.7642L221.56 39.448ZM221.032 43.912L221.739 44.6191L221.739 44.6191L221.032 43.912ZM210.52 44.68V43.68H209.52V44.68H210.52ZM210.52 54.808L210.783 55.7728L211.52 55.5718V54.808H210.52ZM208.84 55.096L208.716 54.1037L208.711 54.1044L208.84 55.096ZM204.664 55.048L204.881 54.0718L204.859 54.067L204.838 54.0632L204.664 55.048ZM203.272 54.472L202.672 55.272L202.672 55.272L203.272 54.472ZM202.408 53.272L201.472 53.6231L201.472 53.6231L202.408 53.272ZM221.724 26.4489C221.872 26.6814 222.031 27.0531 222.177 27.6065L224.111 27.0975C223.937 26.4349 223.712 25.8466 223.412 25.3751L221.724 26.4489ZM222.195 27.6682C222.352 28.1369 222.432 28.6376 222.432 29.176H224.432C224.432 28.4344 224.32 27.7191 224.093 27.0358L222.195 27.6682ZM222.432 29.176C222.432 30.3167 222.177 30.8884 221.909 31.1569L223.323 32.5711C224.143 31.7516 224.432 30.5313 224.432 29.176H222.432ZM221.909 31.1569C221.627 31.4389 221.202 31.632 220.504 31.632V33.632C221.598 33.632 222.581 33.3131 223.323 32.5711L221.909 31.1569ZM220.504 31.632H210.424V33.632H220.504V31.632ZM209.424 32.632V38.056H211.424V32.632H209.424ZM210.424 39.056H220.936V37.056H210.424V39.056ZM220.127 38.6442C220.292 38.8707 220.457 39.2148 220.596 39.7156L222.524 39.1804C222.343 38.5292 222.092 37.9453 221.745 37.4678L220.127 38.6442ZM220.611 39.7642C220.768 40.2329 220.848 40.7336 220.848 41.272H222.848C222.848 40.5304 222.736 39.8151 222.509 39.1318L220.611 39.7642ZM220.848 41.272C220.848 42.3717 220.597 42.9325 220.325 43.2049L221.739 44.6191C222.555 43.8035 222.848 42.6043 222.848 41.272H220.848ZM220.325 43.2049C220.043 43.4869 219.618 43.68 218.92 43.68V45.68C220.014 45.68 220.997 45.3611 221.739 44.6191L220.325 43.2049ZM218.92 43.68H210.52V45.68H218.92V43.68ZM209.52 44.68V54.808H211.52V44.68H209.52ZM210.257 53.8432C209.978 53.9194 209.477 54.0086 208.716 54.1037L208.964 56.0883C209.739 55.9914 210.358 55.8886 210.783 55.7728L210.257 53.8432ZM208.711 54.1044C208.017 54.1949 207.324 54.24 206.632 54.24V56.24C207.412 56.24 208.191 56.1891 208.969 56.0876L208.711 54.1044ZM206.632 54.24C205.952 54.24 205.371 54.1807 204.881 54.0718L204.447 56.0242C205.109 56.1713 205.84 56.24 206.632 56.24V54.24ZM204.838 54.0632C204.425 53.9904 204.113 53.8525 203.872 53.672L202.672 55.272C203.199 55.6675 203.815 55.9136 204.49 56.0328L204.838 54.0632ZM203.872 53.672C203.661 53.5138 203.479 53.2798 203.344 52.9209L201.472 53.6231C201.721 54.2882 202.115 54.8542 202.672 55.272L203.872 53.672ZM203.344 52.9209C203.21 52.5638 203.12 52.0241 203.12 51.256H201.12C201.12 52.1519 201.222 52.9562 201.472 53.6231L203.344 52.9209ZM203.12 51.256V30.376H201.12V51.256H203.12ZM203.12 30.376C203.12 29.2041 203.454 28.3924 204.027 27.8191L202.613 26.4049C201.586 27.4316 201.12 28.7959 201.12 30.376H203.12ZM204.027 27.8191C204.6 27.2458 205.412 26.912 206.584 26.912V24.912C205.004 24.912 203.64 25.3782 202.613 26.4049L204.027 27.8191ZM206.584 26.912H222.568V24.912H206.584V26.912Z" fill="#FFDF36" mask="url(#path-13-outside-7_1_19)"/>
<mask id="path-15-outside-8_1_19" maskUnits="userSpaceOnUse" x="225" y="37" width="31" height="33" fill="black">
<rect fill="white" x="225" y="37" width="31" height="33"/>
<path d="M234.312 39.776C234.856 39.456 235.672 39.152 236.76 38.864C237.88 38.576 239 38.432 240.12 38.432C241.72 38.432 243.128 38.672 244.344 39.152C245.592 39.6 246.392 40.32 246.744 41.312C247.32 42.976 247.944 44.912 248.616 47.12C249.288 49.328 249.96 51.616 250.632 53.984C251.304 56.32 251.96 58.64 252.6 60.944C253.24 63.216 253.8 65.232 254.28 66.992C253.896 67.44 253.32 67.792 252.552 68.048C251.784 68.336 250.872 68.48 249.816 68.48C249.048 68.48 248.392 68.416 247.848 68.288C247.336 68.16 246.904 67.968 246.552 67.712C246.232 67.456 245.96 67.12 245.736 66.704C245.544 66.288 245.368 65.808 245.208 65.264L244.344 61.952H235.656C235.4 62.912 235.144 63.904 234.888 64.928C234.632 65.952 234.376 66.944 234.12 67.904C233.672 68.064 233.192 68.192 232.68 68.288C232.2 68.416 231.608 68.48 230.904 68.48C229.272 68.48 228.056 68.208 227.256 67.664C226.488 67.088 226.104 66.304 226.104 65.312C226.104 64.864 226.168 64.416 226.296 63.968C226.424 63.52 226.568 62.992 226.728 62.384C226.952 61.52 227.256 60.448 227.64 59.168C228.056 57.888 228.504 56.512 228.984 55.04C229.464 53.536 229.976 52 230.52 50.432C231.064 48.864 231.576 47.392 232.056 46.016C232.536 44.608 232.968 43.36 233.352 42.272C233.768 41.184 234.088 40.352 234.312 39.776ZM240.072 45.968C239.624 47.312 239.112 48.816 238.536 50.48C237.992 52.112 237.496 53.776 237.048 55.472H243C242.552 53.744 242.088 52.064 241.608 50.432C241.16 48.768 240.744 47.28 240.36 45.968H240.072Z"/>
</mask>
<path d="M234.312 39.776C234.856 39.456 235.672 39.152 236.76 38.864C237.88 38.576 239 38.432 240.12 38.432C241.72 38.432 243.128 38.672 244.344 39.152C245.592 39.6 246.392 40.32 246.744 41.312C247.32 42.976 247.944 44.912 248.616 47.12C249.288 49.328 249.96 51.616 250.632 53.984C251.304 56.32 251.96 58.64 252.6 60.944C253.24 63.216 253.8 65.232 254.28 66.992C253.896 67.44 253.32 67.792 252.552 68.048C251.784 68.336 250.872 68.48 249.816 68.48C249.048 68.48 248.392 68.416 247.848 68.288C247.336 68.16 246.904 67.968 246.552 67.712C246.232 67.456 245.96 67.12 245.736 66.704C245.544 66.288 245.368 65.808 245.208 65.264L244.344 61.952H235.656C235.4 62.912 235.144 63.904 234.888 64.928C234.632 65.952 234.376 66.944 234.12 67.904C233.672 68.064 233.192 68.192 232.68 68.288C232.2 68.416 231.608 68.48 230.904 68.48C229.272 68.48 228.056 68.208 227.256 67.664C226.488 67.088 226.104 66.304 226.104 65.312C226.104 64.864 226.168 64.416 226.296 63.968C226.424 63.52 226.568 62.992 226.728 62.384C226.952 61.52 227.256 60.448 227.64 59.168C228.056 57.888 228.504 56.512 228.984 55.04C229.464 53.536 229.976 52 230.52 50.432C231.064 48.864 231.576 47.392 232.056 46.016C232.536 44.608 232.968 43.36 233.352 42.272C233.768 41.184 234.088 40.352 234.312 39.776ZM240.072 45.968C239.624 47.312 239.112 48.816 238.536 50.48C237.992 52.112 237.496 53.776 237.048 55.472H243C242.552 53.744 242.088 52.064 241.608 50.432C241.16 48.768 240.744 47.28 240.36 45.968H240.072Z" fill="#FFDF36"/>
<path d="M234.312 39.776L233.805 38.9141L233.506 39.0901L233.38 39.4136L234.312 39.776ZM236.76 38.864L236.511 37.8955L236.504 37.8973L236.76 38.864ZM244.344 39.152L243.977 40.0822L243.991 40.0879L244.006 40.0932L244.344 39.152ZM246.744 41.312L247.689 40.9849L247.686 40.9776L246.744 41.312ZM248.616 47.12L249.573 46.8288L249.573 46.8288L248.616 47.12ZM250.632 53.984L249.67 54.257L249.671 54.2605L250.632 53.984ZM252.6 60.944L251.636 61.2116L251.637 61.2151L252.6 60.944ZM254.28 66.992L255.039 67.6428L255.384 67.2403L255.245 66.7289L254.28 66.992ZM252.552 68.048L252.236 67.0993L252.218 67.1052L252.201 67.1117L252.552 68.048ZM247.848 68.288L247.605 69.2582L247.619 69.2614L247.848 68.288ZM246.552 67.712L245.927 68.4929L245.945 68.5072L245.964 68.5207L246.552 67.712ZM245.736 66.704L244.828 67.1231L244.841 67.151L244.856 67.1781L245.736 66.704ZM245.208 65.264L244.24 65.5164L244.244 65.5314L244.249 65.5462L245.208 65.264ZM244.344 61.952L245.312 61.6996L245.117 60.952H244.344V61.952ZM235.656 61.952V60.952H234.888L234.69 61.6943L235.656 61.952ZM234.888 64.928L233.918 64.6855L233.918 64.6855L234.888 64.928ZM234.12 67.904L234.456 68.8457L234.951 68.6691L235.086 68.1617L234.12 67.904ZM232.68 68.288L232.496 67.3051L232.459 67.3121L232.422 67.3218L232.68 68.288ZM227.256 67.664L226.656 68.464L226.675 68.4779L226.694 68.4909L227.256 67.664ZM226.296 63.968L225.334 63.6933L225.334 63.6933L226.296 63.968ZM226.728 62.384L227.695 62.6385L227.696 62.635L226.728 62.384ZM227.64 59.168L226.689 58.8589L226.685 58.8697L226.682 58.8807L227.64 59.168ZM228.984 55.04L229.935 55.35L229.937 55.344L228.984 55.04ZM230.52 50.432L229.575 50.1042L229.575 50.1042L230.52 50.432ZM232.056 46.016L233 46.3454L233.003 46.3387L232.056 46.016ZM233.352 42.272L232.418 41.9149L232.413 41.927L232.409 41.9392L233.352 42.272ZM240.072 45.968V44.968H239.351L239.123 45.6518L240.072 45.968ZM238.536 50.48L237.591 50.1529L237.587 50.1638L238.536 50.48ZM237.048 55.472L236.081 55.2166L235.75 56.472H237.048V55.472ZM243 55.472V56.472H244.292L243.968 55.221L243 55.472ZM241.608 50.432L240.642 50.692L240.645 50.7031L240.649 50.7142L241.608 50.432ZM240.36 45.968L241.32 45.6871L241.109 44.968H240.36V45.968ZM234.819 40.6379C235.246 40.3868 235.959 40.1106 237.016 39.8307L236.504 37.8973C235.385 38.1934 234.466 38.5252 233.805 38.9141L234.819 40.6379ZM237.009 39.8325C238.05 39.5647 239.087 39.432 240.12 39.432V37.432C238.913 37.432 237.71 37.5873 236.511 37.8955L237.009 39.8325ZM240.12 39.432C241.622 39.432 242.901 39.6574 243.977 40.0822L244.711 38.2218C243.355 37.6866 241.818 37.432 240.12 37.432V39.432ZM244.006 40.0932C245.052 40.4685 245.575 41.0084 245.802 41.6464L247.686 40.9776C247.209 39.6316 246.132 38.7315 244.682 38.2108L244.006 40.0932ZM245.799 41.6391C246.37 43.2882 246.99 45.2118 247.659 47.4112L249.573 46.8288C248.898 44.6122 248.27 42.6638 247.689 40.9849L245.799 41.6391ZM247.659 47.4112C248.329 49.6127 249 51.8947 249.67 54.257L251.594 53.711C250.92 51.3373 250.247 49.0433 249.573 46.8288L247.659 47.4112ZM249.671 54.2605C250.342 56.5936 250.997 58.9106 251.636 61.2116L253.564 60.6764C252.923 58.3694 252.266 56.0464 251.593 53.7075L249.671 54.2605ZM251.637 61.2151C252.277 63.4852 252.836 65.4984 253.315 67.2551L255.245 66.7289C254.764 64.9656 254.203 62.9468 253.563 60.6729L251.637 61.2151ZM253.521 66.3412C253.291 66.6096 252.893 66.8802 252.236 67.0993L252.868 68.9967C253.747 68.7038 254.501 68.2704 255.039 67.6428L253.521 66.3412ZM252.201 67.1117C251.572 67.3474 250.785 67.48 249.816 67.48V69.48C250.959 69.48 251.996 69.3246 252.903 68.9843L252.201 67.1117ZM249.816 67.48C249.099 67.48 248.524 67.4197 248.077 67.3146L247.619 69.2614C248.26 69.4123 248.997 69.48 249.816 69.48V67.48ZM248.091 67.3179C247.677 67.2145 247.369 67.0696 247.14 66.9033L245.964 68.5207C246.439 68.8664 246.995 69.1055 247.605 69.2581L248.091 67.3179ZM247.177 66.9311C246.977 66.771 246.786 66.5454 246.616 66.2299L244.856 67.1781C245.134 67.6946 245.487 68.141 245.927 68.4929L247.177 66.9311ZM246.644 66.2849C246.477 65.9222 246.317 65.4895 246.167 64.9818L244.249 65.5462C244.419 66.1265 244.611 66.6538 244.828 67.1231L246.644 66.2849ZM246.176 65.0116L245.312 61.6996L243.376 62.2044L244.24 65.5164L246.176 65.0116ZM244.344 60.952H235.656V62.952H244.344V60.952ZM234.69 61.6943C234.432 62.6597 234.175 63.6567 233.918 64.6855L235.858 65.1705C236.113 64.1513 236.368 63.1643 236.622 62.2097L234.69 61.6943ZM233.918 64.6855C233.663 65.7047 233.408 66.6917 233.154 67.6463L235.086 68.1617C235.344 67.1963 235.601 66.1993 235.858 65.1705L233.918 64.6855ZM233.784 66.9623C233.39 67.103 232.961 67.2179 232.496 67.3051L232.864 69.2709C233.423 69.1661 233.954 69.025 234.456 68.8457L233.784 66.9623ZM232.422 67.3218C232.053 67.4202 231.554 67.48 230.904 67.48V69.48C231.662 69.48 232.347 69.4118 232.938 69.2542L232.422 67.3218ZM230.904 67.48C229.349 67.48 228.374 67.2146 227.818 66.8371L226.694 68.4909C227.738 69.2014 229.195 69.48 230.904 69.48V67.48ZM227.856 66.864C227.35 66.4841 227.104 66.0016 227.104 65.312H225.104C225.104 66.6064 225.626 67.6919 226.656 68.464L227.856 66.864ZM227.104 65.312C227.104 64.9606 227.154 64.605 227.258 64.2427L225.334 63.6933C225.182 64.227 225.104 64.7674 225.104 65.312H227.104ZM227.258 64.2427C227.388 63.7861 227.534 63.2511 227.695 62.6385L225.761 62.1295C225.602 62.7329 225.46 63.2539 225.334 63.6933L227.258 64.2427ZM227.696 62.635C227.916 61.7875 228.216 60.7286 228.598 59.4553L226.682 58.8807C226.296 60.1674 225.988 61.2525 225.76 62.133L227.696 62.635ZM228.591 59.4771C229.007 58.1974 229.455 56.8218 229.935 55.35L228.033 54.73C227.553 56.2022 227.105 57.5786 226.689 58.8589L228.591 59.4771ZM229.937 55.344C230.414 53.8484 230.923 52.3203 231.465 50.7598L229.575 50.1042C229.029 51.6797 228.514 53.2236 228.031 54.736L229.937 55.344ZM231.465 50.7598C232.009 49.1922 232.52 47.7208 233 46.3454L231.112 45.6866C230.632 47.0632 230.119 48.5358 229.575 50.1042L231.465 50.7598ZM233.003 46.3387C233.482 44.9332 233.912 43.6886 234.295 42.6048L232.409 41.9392C232.024 43.0314 231.59 44.2828 231.109 45.6933L233.003 46.3387ZM234.286 42.6291C234.702 41.5417 235.021 40.7118 235.244 40.1384L233.38 39.4136C233.155 39.9922 232.834 40.8263 232.418 41.9149L234.286 42.6291ZM239.123 45.6518C238.677 46.9914 238.166 48.4917 237.591 50.1529L239.481 50.8071C240.058 49.1403 240.571 47.6326 241.021 46.2842L239.123 45.6518ZM237.587 50.1638C237.036 51.8162 236.534 53.5005 236.081 55.2166L238.015 55.7274C238.458 54.0515 238.948 52.4078 239.485 50.7962L237.587 50.1638ZM237.048 56.472H243V54.472H237.048V56.472ZM243.968 55.221C243.517 53.4831 243.051 51.7927 242.567 50.1498L240.649 50.7142C241.125 52.3353 241.587 54.0049 242.032 55.723L243.968 55.221ZM242.574 50.172C242.124 48.5027 241.706 47.0076 241.32 45.6871L239.4 46.2489C239.782 47.5524 240.196 49.0333 240.642 50.692L242.574 50.172ZM240.36 44.968H240.072V46.968H240.36V44.968Z" fill="#FFDF36" mask="url(#path-15-outside-8_1_19)"/>
<mask id="path-17-outside-9_1_19" maskUnits="userSpaceOnUse" x="257" y="20" width="27" height="33" fill="black">
<rect fill="white" x="257" y="20" width="27" height="33"/>
<path d="M268.376 39.432C266.968 38.952 265.688 38.472 264.536 37.992C263.384 37.48 262.392 36.872 261.56 36.168C260.728 35.464 260.072 34.632 259.592 33.672C259.144 32.68 258.92 31.48 258.92 30.072C258.92 27.352 259.96 25.176 262.04 23.544C264.152 21.912 267.096 21.096 270.872 21.096C272.248 21.096 273.528 21.192 274.712 21.384C275.896 21.576 276.904 21.88 277.736 22.296C278.6 22.68 279.272 23.192 279.752 23.832C280.232 24.44 280.472 25.16 280.472 25.992C280.472 26.824 280.28 27.544 279.896 28.152C279.512 28.728 279.048 29.224 278.504 29.64C277.8 29.192 276.856 28.808 275.672 28.488C274.488 28.136 273.192 27.96 271.784 27.96C270.344 27.96 269.288 28.168 268.616 28.584C267.944 28.968 267.608 29.464 267.608 30.072C267.608 30.552 267.816 30.952 268.232 31.272C268.648 31.56 269.272 31.832 270.104 32.088L272.648 32.904C275.656 33.864 277.96 35.096 279.56 36.6C281.192 38.072 282.008 40.088 282.008 42.648C282.008 45.368 280.936 47.576 278.792 49.272C276.648 50.936 273.496 51.768 269.336 51.768C267.864 51.768 266.488 51.64 265.208 51.384C263.96 51.16 262.856 50.824 261.896 50.376C260.968 49.896 260.232 49.32 259.688 48.648C259.176 47.944 258.92 47.144 258.92 46.248C258.92 45.32 259.192 44.536 259.736 43.896C260.28 43.224 260.872 42.712 261.512 42.36C262.408 43.064 263.496 43.672 264.776 44.184C266.088 44.696 267.512 44.952 269.048 44.952C270.616 44.952 271.72 44.712 272.36 44.232C273 43.752 273.32 43.192 273.32 42.552C273.32 41.912 273.064 41.432 272.552 41.112C272.04 40.76 271.32 40.424 270.392 40.104L268.376 39.432Z"/>
</mask>
<path d="M268.376 39.432C266.968 38.952 265.688 38.472 264.536 37.992C263.384 37.48 262.392 36.872 261.56 36.168C260.728 35.464 260.072 34.632 259.592 33.672C259.144 32.68 258.92 31.48 258.92 30.072C258.92 27.352 259.96 25.176 262.04 23.544C264.152 21.912 267.096 21.096 270.872 21.096C272.248 21.096 273.528 21.192 274.712 21.384C275.896 21.576 276.904 21.88 277.736 22.296C278.6 22.68 279.272 23.192 279.752 23.832C280.232 24.44 280.472 25.16 280.472 25.992C280.472 26.824 280.28 27.544 279.896 28.152C279.512 28.728 279.048 29.224 278.504 29.64C277.8 29.192 276.856 28.808 275.672 28.488C274.488 28.136 273.192 27.96 271.784 27.96C270.344 27.96 269.288 28.168 268.616 28.584C267.944 28.968 267.608 29.464 267.608 30.072C267.608 30.552 267.816 30.952 268.232 31.272C268.648 31.56 269.272 31.832 270.104 32.088L272.648 32.904C275.656 33.864 277.96 35.096 279.56 36.6C281.192 38.072 282.008 40.088 282.008 42.648C282.008 45.368 280.936 47.576 278.792 49.272C276.648 50.936 273.496 51.768 269.336 51.768C267.864 51.768 266.488 51.64 265.208 51.384C263.96 51.16 262.856 50.824 261.896 50.376C260.968 49.896 260.232 49.32 259.688 48.648C259.176 47.944 258.92 47.144 258.92 46.248C258.92 45.32 259.192 44.536 259.736 43.896C260.28 43.224 260.872 42.712 261.512 42.36C262.408 43.064 263.496 43.672 264.776 44.184C266.088 44.696 267.512 44.952 269.048 44.952C270.616 44.952 271.72 44.712 272.36 44.232C273 43.752 273.32 43.192 273.32 42.552C273.32 41.912 273.064 41.432 272.552 41.112C272.04 40.76 271.32 40.424 270.392 40.104L268.376 39.432Z" fill="#FFDF36"/>
<path d="M268.376 39.432L268.053 40.3785L268.06 40.3807L268.376 39.432ZM264.536 37.992L264.13 38.9058L264.141 38.9106L264.151 38.9151L264.536 37.992ZM259.592 33.672L258.681 34.0836L258.689 34.1016L258.698 34.1192L259.592 33.672ZM262.04 23.544L261.429 22.7527L261.423 22.7573L262.04 23.544ZM274.712 21.384L274.872 20.3969L274.872 20.3969L274.712 21.384ZM277.736 22.296L277.289 23.1904L277.309 23.2006L277.33 23.2098L277.736 22.296ZM279.752 23.832L278.952 24.432L278.959 24.4419L278.967 24.4516L279.752 23.832ZM279.896 28.152L280.728 28.7067L280.735 28.6964L280.741 28.686L279.896 28.152ZM278.504 29.64L277.967 30.4837L278.557 30.8587L279.111 30.4344L278.504 29.64ZM275.672 28.488L275.387 29.4465L275.399 29.4501L275.411 29.4534L275.672 28.488ZM268.616 28.584L269.112 29.4522L269.127 29.4435L269.142 29.4343L268.616 28.584ZM268.232 31.272L267.622 32.0646L267.642 32.0799L267.663 32.0942L268.232 31.272ZM270.104 32.088L270.409 31.1357L270.398 31.1322L270.104 32.088ZM272.648 32.904L272.343 33.8562L272.344 33.8567L272.648 32.904ZM279.56 36.6L278.875 37.3286L278.883 37.3357L278.89 37.3426L279.56 36.6ZM278.792 49.272L279.405 50.062L279.412 50.0563L278.792 49.272ZM265.208 51.384L265.404 50.4034L265.394 50.4015L265.385 50.3997L265.208 51.384ZM261.896 50.376L261.437 51.2642L261.455 51.2736L261.473 51.2822L261.896 50.376ZM259.688 48.648L258.879 49.2362L258.894 49.2571L258.911 49.2772L259.688 48.648ZM259.736 43.896L260.498 44.5436L260.506 44.5345L260.513 44.5252L259.736 43.896ZM261.512 42.36L262.13 41.5737L261.61 41.165L261.03 41.4838L261.512 42.36ZM264.776 44.184L264.405 45.1125L264.412 45.1156L264.776 44.184ZM272.36 44.232L272.96 45.032L272.96 45.032L272.36 44.232ZM272.552 41.112L271.985 41.936L272.003 41.9484L272.022 41.96L272.552 41.112ZM270.392 40.104L270.718 39.1586L270.708 39.1553L270.392 40.104ZM268.699 38.4855C267.308 38.0113 266.049 37.539 264.921 37.0689L264.151 38.9151C265.327 39.405 266.628 39.8927 268.053 40.3785L268.699 38.4855ZM264.942 37.0782C263.864 36.5988 262.955 36.0386 262.206 35.4046L260.914 36.9314C261.829 37.7054 262.904 38.3612 264.13 38.9058L264.942 37.0782ZM262.206 35.4046C261.476 34.7867 260.905 34.0617 260.486 33.2248L258.698 34.1192C259.239 35.2022 259.98 36.1413 260.914 36.9314L262.206 35.4046ZM260.503 33.2604C260.128 32.4298 259.92 31.378 259.92 30.072H257.92C257.92 31.5819 258.16 32.9302 258.681 34.0836L260.503 33.2604ZM259.92 30.072C259.92 27.6488 260.827 25.7669 262.657 24.3307L261.423 22.7573C259.093 24.5851 257.92 27.0552 257.92 30.072H259.92ZM262.651 24.3353C264.529 22.8847 267.228 22.096 270.872 22.096V20.096C266.964 20.096 263.775 20.9393 261.429 22.7527L262.651 24.3353ZM270.872 22.096C272.202 22.096 273.428 22.1888 274.552 22.3711L274.872 20.3969C273.628 20.1952 272.294 20.096 270.872 20.096V22.096ZM274.552 22.3711C275.663 22.5513 276.569 22.8306 277.289 23.1904L278.183 21.4016C277.239 20.9294 276.129 20.6007 274.872 20.3969L274.552 22.3711ZM277.33 23.2098C278.066 23.5372 278.592 23.9514 278.952 24.432L280.552 23.232C279.952 22.4326 279.134 21.8228 278.142 21.3822L277.33 23.2098ZM278.967 24.4516C279.297 24.8697 279.472 25.3671 279.472 25.992H281.472C281.472 24.9529 281.167 24.0103 280.537 23.2124L278.967 24.4516ZM279.472 25.992C279.472 26.6653 279.319 27.1936 279.051 27.618L280.741 28.686C281.241 27.8944 281.472 26.9827 281.472 25.992H279.472ZM279.064 27.5973C278.74 28.0826 278.352 28.4973 277.897 28.8456L279.111 30.4344C279.744 29.9507 280.284 29.3734 280.728 28.7067L279.064 27.5973ZM279.041 28.7963C278.222 28.275 277.173 27.8578 275.933 27.5226L275.411 29.4534C276.539 29.7582 277.378 30.109 277.967 30.4837L279.041 28.7963ZM275.957 27.5295C274.669 27.1464 273.275 26.96 271.784 26.96V28.96C273.109 28.96 274.307 29.1256 275.387 29.4465L275.957 27.5295ZM271.784 26.96C270.289 26.96 269.003 27.1684 268.09 27.7337L269.142 29.4343C269.573 29.1676 270.399 28.96 271.784 28.96V26.96ZM268.12 27.7158C267.235 28.2214 266.608 29.0044 266.608 30.072H268.608C268.608 29.9236 268.653 29.7146 269.112 29.4522L268.12 27.7158ZM266.608 30.072C266.608 30.8944 266.987 31.5757 267.622 32.0646L268.842 30.4794C268.645 30.3283 268.608 30.2096 268.608 30.072H266.608ZM267.663 32.0942C268.203 32.4678 268.94 32.776 269.81 33.0438L270.398 31.1322C269.604 30.888 269.093 30.6522 268.801 30.4498L267.663 32.0942ZM269.799 33.0402L272.343 33.8562L272.953 31.9518L270.409 31.1358L269.799 33.0402ZM272.344 33.8567C275.268 34.7897 277.421 35.9614 278.875 37.3286L280.245 35.8714C278.499 34.2306 276.044 32.9383 272.952 31.9513L272.344 33.8567ZM278.89 37.3426C280.277 38.5931 281.008 40.3199 281.008 42.648H283.008C283.008 39.8561 282.107 37.5509 280.23 35.8574L278.89 37.3426ZM281.008 42.648C281.008 45.0605 280.077 46.9803 278.172 48.4877L279.412 50.0563C281.795 48.1717 283.008 45.6755 283.008 42.648H281.008ZM278.179 48.482C276.282 49.9543 273.386 50.768 269.336 50.768V52.768C273.606 52.768 277.014 51.9177 279.405 50.062L278.179 48.482ZM269.336 50.768C267.922 50.768 266.612 50.645 265.404 50.4034L265.012 52.3646C266.364 52.635 267.806 52.768 269.336 52.768V50.768ZM265.385 50.3997C264.206 50.1881 263.187 49.8749 262.319 49.4698L261.473 51.2822C262.525 51.7731 263.714 52.1319 265.031 52.3683L265.385 50.3997ZM262.355 49.4878C261.525 49.0583 260.906 48.5635 260.465 48.0188L258.911 49.2772C259.558 50.0765 260.411 50.7337 261.437 51.2642L262.355 49.4878ZM260.497 48.0598C260.113 47.532 259.92 46.9393 259.92 46.248H257.92C257.92 47.3487 258.239 48.356 258.879 49.2362L260.497 48.0598ZM259.92 46.248C259.92 45.5306 260.124 44.9835 260.498 44.5436L258.974 43.2484C258.26 44.0885 257.92 45.1094 257.92 46.248H259.92ZM260.513 44.5252C260.99 43.9357 261.486 43.5154 261.994 43.2362L261.03 41.4838C260.258 41.9086 259.57 42.5123 258.959 43.2668L260.513 44.5252ZM260.894 43.1463C261.879 43.92 263.054 44.5722 264.405 45.1125L265.147 43.2555C263.938 42.7718 262.937 42.208 262.13 41.5737L260.894 43.1463ZM264.412 45.1156C265.85 45.6767 267.399 45.952 269.048 45.952V43.952C267.625 43.952 266.326 43.7153 265.14 43.2524L264.412 45.1156ZM269.048 45.952C270.657 45.952 272.046 45.7178 272.96 45.032L271.76 43.432C271.394 43.7062 270.575 43.952 269.048 43.952V45.952ZM272.96 45.032C273.782 44.4155 274.32 43.5849 274.32 42.552H272.32C272.32 42.7991 272.218 43.0885 271.76 43.432L272.96 45.032ZM274.32 42.552C274.32 41.5922 273.907 40.7796 273.082 40.264L272.022 41.96C272.221 42.0844 272.32 42.2318 272.32 42.552H274.32ZM273.119 40.288C272.502 39.8642 271.688 39.4931 270.718 39.1586L270.066 41.0494C270.952 41.3549 271.578 41.6558 271.985 41.936L273.119 40.288ZM270.708 39.1553L268.692 38.4833L268.06 40.3807L270.076 41.0527L270.708 39.1553Z" fill="#FFDF36" mask="url(#path-17-outside-9_1_19)"/>
<mask id="path-19-outside-10_1_19" maskUnits="userSpaceOnUse" x="286" y="33" width="29" height="33" fill="black">
<rect fill="white" x="286" y="33" width="29" height="33"/>
<path d="M313.136 63.808C312.784 63.904 312.224 64 311.456 64.096C310.72 64.192 309.984 64.24 309.248 64.24C308.512 64.24 307.856 64.176 307.28 64.048C306.736 63.952 306.272 63.76 305.888 63.472C305.504 63.184 305.216 62.784 305.024 62.272C304.832 61.76 304.736 61.088 304.736 60.256V52.768H295.52V63.808C295.168 63.904 294.608 64 293.84 64.096C293.104 64.192 292.368 64.24 291.632 64.24C290.896 64.24 290.24 64.176 289.664 64.048C289.12 63.952 288.656 63.76 288.272 63.472C287.888 63.184 287.6 62.784 287.408 62.272C287.216 61.76 287.12 61.088 287.12 60.256V34.912C287.472 34.848 288.032 34.768 288.8 34.672C289.568 34.544 290.304 34.48 291.008 34.48C291.744 34.48 292.384 34.544 292.928 34.672C293.504 34.768 293.984 34.96 294.368 35.248C294.752 35.536 295.04 35.936 295.232 36.448C295.424 36.96 295.52 37.632 295.52 38.464V46.144H304.736V34.912C305.088 34.848 305.648 34.768 306.416 34.672C307.184 34.544 307.92 34.48 308.624 34.48C309.36 34.48 310 34.544 310.544 34.672C311.12 34.768 311.6 34.96 311.984 35.248C312.368 35.536 312.656 35.936 312.848 36.448C313.04 36.96 313.136 37.632 313.136 38.464V63.808Z"/>
</mask>
<path d="M313.136 63.808C312.784 63.904 312.224 64 311.456 64.096C310.72 64.192 309.984 64.24 309.248 64.24C308.512 64.24 307.856 64.176 307.28 64.048C306.736 63.952 306.272 63.76 305.888 63.472C305.504 63.184 305.216 62.784 305.024 62.272C304.832 61.76 304.736 61.088 304.736 60.256V52.768H295.52V63.808C295.168 63.904 294.608 64 293.84 64.096C293.104 64.192 292.368 64.24 291.632 64.24C290.896 64.24 290.24 64.176 289.664 64.048C289.12 63.952 288.656 63.76 288.272 63.472C287.888 63.184 287.6 62.784 287.408 62.272C287.216 61.76 287.12 61.088 287.12 60.256V34.912C287.472 34.848 288.032 34.768 288.8 34.672C289.568 34.544 290.304 34.48 291.008 34.48C291.744 34.48 292.384 34.544 292.928 34.672C293.504 34.768 293.984 34.96 294.368 35.248C294.752 35.536 295.04 35.936 295.232 36.448C295.424 36.96 295.52 37.632 295.52 38.464V46.144H304.736V34.912C305.088 34.848 305.648 34.768 306.416 34.672C307.184 34.544 307.92 34.48 308.624 34.48C309.36 34.48 310 34.544 310.544 34.672C311.12 34.768 311.6 34.96 311.984 35.248C312.368 35.536 312.656 35.936 312.848 36.448C313.04 36.96 313.136 37.632 313.136 38.464V63.808Z" fill="#FFDF36"/>
<path d="M313.136 63.808L313.399 64.7728L314.136 64.5718V63.808H313.136ZM311.456 64.096L311.332 63.1037L311.327 63.1044L311.456 64.096ZM307.28 64.048L307.497 63.0718L307.475 63.067L307.454 63.0632L307.28 64.048ZM305.888 63.472L306.488 62.672L305.888 63.472ZM305.024 62.272L305.96 61.9209L305.96 61.9209L305.024 62.272ZM304.736 52.768H305.736V51.768H304.736V52.768ZM295.52 52.768V51.768H294.52V52.768H295.52ZM295.52 63.808L295.783 64.7728L296.52 64.5718V63.808H295.52ZM293.84 64.096L293.716 63.1037L293.711 63.1044L293.84 64.096ZM289.664 64.048L289.881 63.0718L289.859 63.067L289.838 63.0632L289.664 64.048ZM288.272 63.472L287.672 64.272L287.672 64.272L288.272 63.472ZM287.408 62.272L286.472 62.6231L286.472 62.6231L287.408 62.272ZM287.12 34.912L286.941 33.9281L286.12 34.0774V34.912H287.12ZM288.8 34.672L288.924 35.6643L288.944 35.6617L288.964 35.6584L288.8 34.672ZM292.928 34.672L292.699 35.6454L292.731 35.653L292.764 35.6584L292.928 34.672ZM294.368 35.248L293.768 36.048L293.768 36.048L294.368 35.248ZM295.232 36.448L294.296 36.7991L294.296 36.7991L295.232 36.448ZM295.52 46.144H294.52V47.144H295.52V46.144ZM304.736 46.144V47.144H305.736V46.144H304.736ZM304.736 34.912L304.557 33.9281L303.736 34.0774V34.912H304.736ZM306.416 34.672L306.54 35.6643L306.56 35.6617L306.58 35.6584L306.416 34.672ZM310.544 34.672L310.315 35.6454L310.347 35.653L310.38 35.6584L310.544 34.672ZM311.984 35.248L311.384 36.048L311.384 36.048L311.984 35.248ZM312.848 36.448L311.912 36.7991L311.912 36.7991L312.848 36.448ZM312.873 62.8432C312.594 62.9194 312.093 63.0086 311.332 63.1037L311.58 65.0883C312.355 64.9914 312.974 64.8886 313.399 64.7728L312.873 62.8432ZM311.327 63.1044C310.633 63.1949 309.94 63.24 309.248 63.24V65.24C310.028 65.24 310.807 65.1891 311.585 65.0876L311.327 63.1044ZM309.248 63.24C308.568 63.24 307.987 63.1807 307.497 63.0718L307.063 65.0242C307.725 65.1713 308.456 65.24 309.248 65.24V63.24ZM307.454 63.0632C307.041 62.9904 306.729 62.8525 306.488 62.672L305.288 64.272C305.815 64.6675 306.431 64.9136 307.106 65.0328L307.454 63.0632ZM306.488 62.672C306.277 62.5138 306.095 62.2798 305.96 61.9209L304.088 62.6231C304.337 63.2882 304.731 63.8542 305.288 64.272L306.488 62.672ZM305.96 61.9209C305.826 61.5638 305.736 61.0241 305.736 60.256H303.736C303.736 61.1519 303.838 61.9562 304.088 62.6231L305.96 61.9209ZM305.736 60.256V52.768H303.736V60.256H305.736ZM304.736 51.768H295.52V53.768H304.736V51.768ZM294.52 52.768V63.808H296.52V52.768H294.52ZM295.257 62.8432C294.978 62.9194 294.477 63.0086 293.716 63.1037L293.964 65.0883C294.739 64.9914 295.358 64.8886 295.783 64.7728L295.257 62.8432ZM293.711 63.1044C293.017 63.1949 292.324 63.24 291.632 63.24V65.24C292.412 65.24 293.191 65.1891 293.969 65.0876L293.711 63.1044ZM291.632 63.24C290.952 63.24 290.371 63.1807 289.881 63.0718L289.447 65.0242C290.109 65.1713 290.84 65.24 291.632 65.24V63.24ZM289.838 63.0632C289.425 62.9904 289.113 62.8525 288.872 62.672L287.672 64.272C288.199 64.6675 288.815 64.9136 289.49 65.0328L289.838 63.0632ZM288.872 62.672C288.661 62.5138 288.479 62.2798 288.344 61.9209L286.472 62.6231C286.721 63.2882 287.115 63.8542 287.672 64.272L288.872 62.672ZM288.344 61.9209C288.21 61.5638 288.12 61.0241 288.12 60.256H286.12C286.12 61.1519 286.222 61.9562 286.472 62.6231L288.344 61.9209ZM288.12 60.256V34.912H286.12V60.256H288.12ZM287.299 35.8959C287.622 35.8372 288.158 35.76 288.924 35.6643L288.676 33.6797C287.906 33.776 287.322 33.8588 286.941 33.9281L287.299 35.8959ZM288.964 35.6584C289.684 35.5385 290.365 35.48 291.008 35.48V33.48C290.243 33.48 289.452 33.5495 288.636 33.6856L288.964 35.6584ZM291.008 35.48C291.69 35.48 292.249 35.5396 292.699 35.6454L293.157 33.6986C292.519 33.5484 291.798 33.48 291.008 33.48V35.48ZM292.764 35.6584C293.215 35.7337 293.537 35.8748 293.768 36.048L294.968 34.448C294.431 34.0452 293.793 33.8023 293.092 33.6856L292.764 35.6584ZM293.768 36.048C293.979 36.2062 294.161 36.4402 294.296 36.7991L296.168 36.0969C295.919 35.4318 295.525 34.8658 294.968 34.448L293.768 36.048ZM294.296 36.7991C294.43 37.1562 294.52 37.6959 294.52 38.464H296.52C296.52 37.5681 296.418 36.7638 296.168 36.0969L294.296 36.7991ZM294.52 38.464V46.144H296.52V38.464H294.52ZM295.52 47.144H304.736V45.144H295.52V47.144ZM305.736 46.144V34.912H303.736V46.144H305.736ZM304.915 35.8959C305.238 35.8372 305.774 35.76 306.54 35.6643L306.292 33.6797C305.522 33.776 304.938 33.8588 304.557 33.9281L304.915 35.8959ZM306.58 35.6584C307.3 35.5385 307.981 35.48 308.624 35.48V33.48C307.859 33.48 307.068 33.5495 306.252 33.6856L306.58 35.6584ZM308.624 35.48C309.306 35.48 309.865 35.5396 310.315 35.6454L310.773 33.6986C310.135 33.5484 309.414 33.48 308.624 33.48V35.48ZM310.38 35.6584C310.831 35.7337 311.153 35.8748 311.384 36.048L312.584 34.448C312.047 34.0452 311.409 33.8023 310.708 33.6856L310.38 35.6584ZM311.384 36.048C311.595 36.2062 311.777 36.4402 311.912 36.7991L313.784 36.0969C313.535 35.4318 313.141 34.8658 312.584 34.448L311.384 36.048ZM311.912 36.7991C312.046 37.1562 312.136 37.6959 312.136 38.464H314.136C314.136 37.5681 314.034 36.7638 313.784 36.0969L311.912 36.7991ZM312.136 38.464V63.808H314.136V38.464H312.136Z" fill="#FFDF36" mask="url(#path-19-outside-10_1_19)"/>
<mask id="path-21-outside-11_1_19" maskUnits="userSpaceOnUse" x="320" y="24" width="11" height="33" fill="black">
<rect fill="white" x="320" y="24" width="11" height="33"/>
<path d="M329.52 54.808C329.168 54.904 328.608 55 327.84 55.096C327.104 55.192 326.368 55.24 325.632 55.24C324.896 55.24 324.24 55.176 323.664 55.048C323.12 54.952 322.656 54.76 322.272 54.472C321.888 54.184 321.6 53.784 321.408 53.272C321.216 52.76 321.12 52.088 321.12 51.256V25.912C321.472 25.848 322.032 25.768 322.8 25.672C323.568 25.544 324.304 25.48 325.008 25.48C325.744 25.48 326.384 25.544 326.928 25.672C327.504 25.768 327.984 25.96 328.368 26.248C328.752 26.536 329.04 26.936 329.232 27.448C329.424 27.96 329.52 28.632 329.52 29.464V54.808Z"/>
</mask>
<path d="M329.52 54.808C329.168 54.904 328.608 55 327.84 55.096C327.104 55.192 326.368 55.24 325.632 55.24C324.896 55.24 324.24 55.176 323.664 55.048C323.12 54.952 322.656 54.76 322.272 54.472C321.888 54.184 321.6 53.784 321.408 53.272C321.216 52.76 321.12 52.088 321.12 51.256V25.912C321.472 25.848 322.032 25.768 322.8 25.672C323.568 25.544 324.304 25.48 325.008 25.48C325.744 25.48 326.384 25.544 326.928 25.672C327.504 25.768 327.984 25.96 328.368 26.248C328.752 26.536 329.04 26.936 329.232 27.448C329.424 27.96 329.52 28.632 329.52 29.464V54.808Z" fill="#FFDF36"/>
<path d="M329.52 54.808L329.783 55.7728L330.52 55.5718V54.808H329.52ZM327.84 55.096L327.716 54.1037L327.711 54.1044L327.84 55.096ZM323.664 55.048L323.881 54.0718L323.859 54.067L323.838 54.0632L323.664 55.048ZM322.272 54.472L321.672 55.272L321.672 55.272L322.272 54.472ZM321.408 53.272L320.472 53.6231L320.472 53.6231L321.408 53.272ZM321.12 25.912L320.941 24.9281L320.12 25.0774V25.912H321.12ZM322.8 25.672L322.924 26.6643L322.944 26.6617L322.964 26.6584L322.8 25.672ZM326.928 25.672L326.699 26.6454L326.731 26.653L326.764 26.6584L326.928 25.672ZM328.368 26.248L327.768 27.048L327.768 27.048L328.368 26.248ZM329.232 27.448L328.296 27.7991L328.296 27.7991L329.232 27.448ZM329.257 53.8432C328.978 53.9194 328.477 54.0086 327.716 54.1037L327.964 56.0883C328.739 55.9914 329.358 55.8886 329.783 55.7728L329.257 53.8432ZM327.711 54.1044C327.017 54.1949 326.324 54.24 325.632 54.24V56.24C326.412 56.24 327.191 56.1891 327.969 56.0876L327.711 54.1044ZM325.632 54.24C324.952 54.24 324.371 54.1807 323.881 54.0718L323.447 56.0242C324.109 56.1713 324.84 56.24 325.632 56.24V54.24ZM323.838 54.0632C323.425 53.9904 323.113 53.8525 322.872 53.672L321.672 55.272C322.199 55.6675 322.815 55.9136 323.49 56.0328L323.838 54.0632ZM322.872 53.672C322.661 53.5138 322.479 53.2798 322.344 52.9209L320.472 53.6231C320.721 54.2882 321.115 54.8542 321.672 55.272L322.872 53.672ZM322.344 52.9209C322.21 52.5638 322.12 52.0241 322.12 51.256H320.12C320.12 52.1519 320.222 52.9562 320.472 53.6231L322.344 52.9209ZM322.12 51.256V25.912H320.12V51.256H322.12ZM321.299 26.8959C321.622 26.8372 322.158 26.76 322.924 26.6643L322.676 24.6797C321.906 24.776 321.322 24.8588 320.941 24.9281L321.299 26.8959ZM322.964 26.6584C323.684 26.5385 324.365 26.48 325.008 26.48V24.48C324.243 24.48 323.452 24.5495 322.636 24.6856L322.964 26.6584ZM325.008 26.48C325.69 26.48 326.249 26.5396 326.699 26.6454L327.157 24.6986C326.519 24.5484 325.798 24.48 325.008 24.48V26.48ZM326.764 26.6584C327.215 26.7337 327.537 26.8748 327.768 27.048L328.968 25.448C328.431 25.0452 327.793 24.8023 327.092 24.6856L326.764 26.6584ZM327.768 27.048C327.979 27.2062 328.161 27.4402 328.296 27.7991L330.168 27.0969C329.919 26.4318 329.525 25.8658 328.968 25.448L327.768 27.048ZM328.296 27.7991C328.43 28.1562 328.52 28.6959 328.52 29.464H330.52C330.52 28.5681 330.418 27.7638 330.168 27.0969L328.296 27.7991ZM328.52 29.464V54.808H330.52V29.464H328.52Z" fill="#FFDF36" mask="url(#path-21-outside-11_1_19)"/>
<mask id="path-23-outside-12_1_19" maskUnits="userSpaceOnUse" x="333" y="37" width="34" height="33" fill="black">
<rect fill="white" x="333" y="37" width="34" height="33"/>
<path d="M334.68 53.408C334.68 50.912 335.064 48.704 335.832 46.784C336.632 44.864 337.704 43.264 339.048 41.984C340.424 40.672 342.024 39.68 343.848 39.008C345.704 38.336 347.704 38 349.848 38C351.992 38 353.976 38.336 355.8 39.008C357.656 39.68 359.272 40.672 360.648 41.984C362.024 43.264 363.096 44.864 363.864 46.784C364.664 48.704 365.064 50.912 365.064 53.408C365.064 55.904 364.68 58.128 363.912 60.08C363.144 62 362.072 63.616 360.696 64.928C359.352 66.208 357.752 67.184 355.896 67.856C354.04 68.528 352.024 68.864 349.848 68.864C347.672 68.864 345.656 68.528 343.8 67.856C341.944 67.152 340.344 66.144 339 64.832C337.656 63.52 336.6 61.904 335.832 59.984C335.064 58.064 334.68 55.872 334.68 53.408ZM343.32 53.408C343.32 56.32 343.912 58.496 345.096 59.936C346.28 61.376 347.864 62.096 349.848 62.096C351.864 62.096 353.464 61.376 354.648 59.936C355.832 58.496 356.424 56.32 356.424 53.408C356.424 50.528 355.832 48.368 354.648 46.928C353.496 45.488 351.912 44.768 349.896 44.768C347.912 44.768 346.312 45.488 345.096 46.928C343.912 48.336 343.32 50.496 343.32 53.408Z"/>
</mask>
<path d="M334.68 53.408C334.68 50.912 335.064 48.704 335.832 46.784C336.632 44.864 337.704 43.264 339.048 41.984C340.424 40.672 342.024 39.68 343.848 39.008C345.704 38.336 347.704 38 349.848 38C351.992 38 353.976 38.336 355.8 39.008C357.656 39.68 359.272 40.672 360.648 41.984C362.024 43.264 363.096 44.864 363.864 46.784C364.664 48.704 365.064 50.912 365.064 53.408C365.064 55.904 364.68 58.128 363.912 60.08C363.144 62 362.072 63.616 360.696 64.928C359.352 66.208 357.752 67.184 355.896 67.856C354.04 68.528 352.024 68.864 349.848 68.864C347.672 68.864 345.656 68.528 343.8 67.856C341.944 67.152 340.344 66.144 339 64.832C337.656 63.52 336.6 61.904 335.832 59.984C335.064 58.064 334.68 55.872 334.68 53.408ZM343.32 53.408C343.32 56.32 343.912 58.496 345.096 59.936C346.28 61.376 347.864 62.096 349.848 62.096C351.864 62.096 353.464 61.376 354.648 59.936C355.832 58.496 356.424 56.32 356.424 53.408C356.424 50.528 355.832 48.368 354.648 46.928C353.496 45.488 351.912 44.768 349.896 44.768C347.912 44.768 346.312 45.488 345.096 46.928C343.912 48.336 343.32 50.496 343.32 53.408Z" fill="#FFDF36"/>
<path d="M335.832 46.784L334.909 46.3994L334.906 46.406L334.904 46.4126L335.832 46.784ZM339.048 41.984L339.738 42.7081L339.738 42.7077L339.048 41.984ZM343.848 39.008L343.508 38.0677L343.502 38.0697L343.848 39.008ZM355.8 39.008L355.454 39.9464L355.46 39.9483L355.8 39.008ZM360.648 41.984L359.958 42.7078L359.967 42.7162L360.648 41.984ZM363.864 46.784L362.936 47.1554L362.938 47.162L362.941 47.1686L363.864 46.784ZM363.912 60.08L364.84 60.4514L364.843 60.4461L363.912 60.08ZM360.696 64.928L361.386 65.6521L361.386 65.6517L360.696 64.928ZM355.896 67.856L355.556 66.9157L355.896 67.856ZM343.8 67.856L343.445 68.791L343.452 68.7937L343.46 68.7963L343.8 67.856ZM339 64.832L338.301 65.5476L338.301 65.5476L339 64.832ZM335.832 59.984L336.76 59.6126L336.76 59.6126L335.832 59.984ZM345.096 59.936L345.868 59.3009L345.868 59.3009L345.096 59.936ZM354.648 59.936L353.876 59.3009L353.876 59.3009L354.648 59.936ZM354.648 46.928L353.867 47.5528L353.876 47.5631L354.648 46.928ZM345.096 46.928L344.332 46.2828L344.331 46.2844L345.096 46.928ZM335.68 53.408C335.68 51.0135 336.048 48.9356 336.76 47.1554L334.904 46.4126C334.08 48.4724 333.68 50.8105 333.68 53.408H335.68ZM336.755 47.1686C337.508 45.3613 338.506 43.8815 339.738 42.7081L338.358 41.2599C336.902 42.6465 335.756 44.3667 334.909 46.3994L336.755 47.1686ZM339.738 42.7077C341.013 41.4922 342.495 40.5722 344.194 39.9463L343.502 38.0697C341.553 38.7878 339.835 39.8518 338.358 41.2603L339.738 42.7077ZM344.188 39.9483C345.926 39.3191 347.81 39 349.848 39V37C347.598 37 345.482 37.3529 343.508 38.0677L344.188 39.9483ZM349.848 39C351.886 39 353.752 39.3191 355.454 39.9463L356.146 38.0697C354.2 37.3529 352.098 37 349.848 37V39ZM355.46 39.9483C357.19 40.5749 358.686 41.495 359.958 42.7077L361.338 41.2603C359.858 39.849 358.122 38.7851 356.14 38.0677L355.46 39.9483ZM359.967 42.7162C361.224 43.8859 362.217 45.3585 362.936 47.1554L364.792 46.4126C363.975 44.3695 362.824 42.6421 361.329 41.2518L359.967 42.7162ZM362.941 47.1686C363.681 48.945 364.064 51.0182 364.064 53.408H366.064C366.064 50.8058 365.647 48.463 364.787 46.3994L362.941 47.1686ZM364.064 53.408C364.064 55.802 363.696 57.8984 362.981 59.7139L364.843 60.4461C365.664 58.3576 366.064 56.006 366.064 53.408H364.064ZM362.984 59.7086C362.264 61.5072 361.269 62.9997 360.006 64.2043L361.386 65.6517C362.875 64.2323 364.024 62.4928 364.84 60.4514L362.984 59.7086ZM360.006 64.2039C358.769 65.3825 357.29 66.2878 355.556 66.9157L356.236 68.7963C358.214 68.0802 359.935 67.0335 361.386 65.6521L360.006 64.2039ZM355.556 66.9157C353.819 67.5444 351.92 67.864 349.848 67.864V69.864C352.128 69.864 354.261 69.5116 356.236 68.7963L355.556 66.9157ZM349.848 67.864C347.776 67.864 345.877 67.5444 344.14 66.9157L343.46 68.7963C345.435 69.5116 347.568 69.864 349.848 69.864V67.864ZM344.155 66.921C342.42 66.2629 340.939 65.327 339.699 64.1164L338.301 65.5476C339.749 66.961 341.468 68.0411 343.445 68.791L344.155 66.921ZM339.699 64.1164C338.464 62.9113 337.482 61.4163 336.76 59.6126L334.904 60.3554C335.718 62.3917 336.848 64.1287 338.301 65.5476L339.699 64.1164ZM336.76 59.6126C336.048 57.831 335.68 55.7686 335.68 53.408H333.68C333.68 55.9754 334.08 58.297 334.904 60.3554L336.76 59.6126ZM342.32 53.408C342.32 56.4285 342.93 58.8758 344.324 60.5711L345.868 59.3009C344.894 58.1162 344.32 56.2115 344.32 53.408H342.32ZM344.324 60.5711C345.711 62.2586 347.587 63.096 349.848 63.096V61.096C348.141 61.096 346.849 60.4934 345.868 59.3009L344.324 60.5711ZM349.848 63.096C352.135 63.096 354.03 62.2628 355.42 60.5711L353.876 59.3009C352.898 60.4892 351.593 61.096 349.848 61.096V63.096ZM355.42 60.5711C356.814 58.8758 357.424 56.4285 357.424 53.408H355.424C355.424 56.2115 354.85 58.1162 353.876 59.3009L355.42 60.5711ZM357.424 53.408C357.424 50.4162 356.813 47.9866 355.42 46.2929L353.876 47.5631C354.851 48.7494 355.424 50.6397 355.424 53.408H357.424ZM355.429 46.3033C354.068 44.6019 352.183 43.768 349.896 43.768V45.768C351.641 45.768 352.924 46.3741 353.867 47.5527L355.429 46.3033ZM349.896 43.768C347.635 43.768 345.749 44.6046 344.332 46.2828L345.86 47.5732C346.875 46.3714 348.189 45.768 349.896 45.768V43.768ZM344.331 46.2844C342.929 47.9517 342.32 50.39 342.32 53.408H344.32C344.32 50.602 344.895 48.7203 345.861 47.5716L344.331 46.2844Z" fill="#FFDF36" mask="url(#path-23-outside-12_1_19)"/>
<mask id="path-25-outside-13_1_19" maskUnits="userSpaceOnUse" x="369" y="45" width="29" height="33" fill="black">
<rect fill="white" x="369" y="45" width="29" height="33"/>
<path d="M396.472 74.992C396.024 75.44 395.368 75.776 394.504 76C393.672 76.256 392.664 76.384 391.48 76.384C390.296 76.384 389.176 76.208 388.12 75.856C387.064 75.504 386.2 74.656 385.528 73.312L380.776 63.616C380.296 62.624 379.864 61.696 379.48 60.832C379.096 59.936 378.68 58.912 378.232 57.76L377.944 57.808C378.072 59.536 378.136 61.296 378.136 63.088C378.168 64.88 378.184 66.64 378.184 68.368V75.808C377.832 75.904 377.288 76 376.552 76.096C375.848 76.192 375.144 76.24 374.44 76.24C373.736 76.24 373.112 76.192 372.568 76.096C372.024 76 371.576 75.808 371.224 75.52C370.872 75.232 370.6 74.848 370.408 74.368C370.216 73.856 370.12 73.2 370.12 72.4V48.4C370.568 47.76 371.256 47.28 372.184 46.96C373.112 46.64 374.104 46.48 375.16 46.48C376.344 46.48 377.464 46.672 378.52 47.056C379.608 47.408 380.472 48.24 381.112 49.552L385.912 59.248C386.392 60.24 386.824 61.184 387.208 62.08C387.592 62.944 388.008 63.952 388.456 65.104L388.696 65.056C388.568 63.328 388.488 61.6 388.456 59.872C388.424 58.144 388.408 56.416 388.408 54.688V46.912C388.76 46.816 389.288 46.72 389.992 46.624C390.728 46.528 391.448 46.48 392.152 46.48C393.56 46.48 394.632 46.736 395.368 47.248C396.104 47.728 396.472 48.752 396.472 50.32V74.992Z"/>
</mask>
<path d="M396.472 74.992C396.024 75.44 395.368 75.776 394.504 76C393.672 76.256 392.664 76.384 391.48 76.384C390.296 76.384 389.176 76.208 388.12 75.856C387.064 75.504 386.2 74.656 385.528 73.312L380.776 63.616C380.296 62.624 379.864 61.696 379.48 60.832C379.096 59.936 378.68 58.912 378.232 57.76L377.944 57.808C378.072 59.536 378.136 61.296 378.136 63.088C378.168 64.88 378.184 66.64 378.184 68.368V75.808C377.832 75.904 377.288 76 376.552 76.096C375.848 76.192 375.144 76.24 374.44 76.24C373.736 76.24 373.112 76.192 372.568 76.096C372.024 76 371.576 75.808 371.224 75.52C370.872 75.232 370.6 74.848 370.408 74.368C370.216 73.856 370.12 73.2 370.12 72.4V48.4C370.568 47.76 371.256 47.28 372.184 46.96C373.112 46.64 374.104 46.48 375.16 46.48C376.344 46.48 377.464 46.672 378.52 47.056C379.608 47.408 380.472 48.24 381.112 49.552L385.912 59.248C386.392 60.24 386.824 61.184 387.208 62.08C387.592 62.944 388.008 63.952 388.456 65.104L388.696 65.056C388.568 63.328 388.488 61.6 388.456 59.872C388.424 58.144 388.408 56.416 388.408 54.688V46.912C388.76 46.816 389.288 46.72 389.992 46.624C390.728 46.528 391.448 46.48 392.152 46.48C393.56 46.48 394.632 46.736 395.368 47.248C396.104 47.728 396.472 48.752 396.472 50.32V74.992Z" fill="#FFDF36"/>
<path d="M396.472 74.992L397.179 75.6991L397.472 75.4062V74.992H396.472ZM394.504 76L394.253 75.032L394.231 75.0376L394.21 75.0442L394.504 76ZM388.12 75.856L388.436 74.9073L388.436 74.9073L388.12 75.856ZM385.528 73.312L384.63 73.7521L384.634 73.7592L385.528 73.312ZM380.776 63.616L379.876 64.0516L379.878 64.0561L380.776 63.616ZM379.48 60.832L378.561 61.226L378.566 61.2381L379.48 60.832ZM378.232 57.76L379.164 57.3976L378.869 56.64L378.068 56.7736L378.232 57.76ZM377.944 57.808L377.78 56.8216L376.879 56.9717L376.947 57.8819L377.944 57.808ZM378.136 63.088H377.136V63.0969L377.136 63.1059L378.136 63.088ZM378.184 75.808L378.447 76.7728L379.184 76.5718V75.808H378.184ZM376.552 76.096L376.423 75.1044L376.417 75.1052L376.552 76.096ZM372.568 76.096L372.742 75.1112L372.568 76.096ZM371.224 75.52L371.857 74.746L371.224 75.52ZM370.408 74.368L369.472 74.7191L369.475 74.7293L369.48 74.7394L370.408 74.368ZM370.12 48.4L369.301 47.8265L369.12 48.0848V48.4H370.12ZM372.184 46.96L371.858 46.0146L371.858 46.0146L372.184 46.96ZM378.52 47.056L378.178 47.9958L378.195 48.0019L378.212 48.0074L378.52 47.056ZM381.112 49.552L380.213 49.9904L380.216 49.9957L381.112 49.552ZM385.912 59.248L386.812 58.8124L386.808 58.8043L385.912 59.248ZM387.208 62.08L386.289 62.474L386.294 62.4861L387.208 62.08ZM388.456 65.104L387.524 65.4664L387.828 66.2493L388.652 66.0846L388.456 65.104ZM388.696 65.056L388.892 66.0366L389.759 65.8633L389.693 64.9821L388.696 65.056ZM388.456 59.872L389.456 59.8535L389.456 59.8535L388.456 59.872ZM388.408 46.912L388.145 45.9472L387.408 46.1482V46.912H388.408ZM389.992 46.624L389.863 45.6324L389.857 45.6332L389.992 46.624ZM395.368 47.248L394.797 48.0689L394.809 48.0774L394.822 48.0856L395.368 47.248ZM395.765 74.2849C395.484 74.5655 395.011 74.8354 394.253 75.032L394.755 76.968C395.725 76.7166 396.564 76.3145 397.179 75.6991L395.765 74.2849ZM394.21 75.0442C393.5 75.2625 392.598 75.384 391.48 75.384V77.384C392.73 77.384 393.844 77.2495 394.798 76.9558L394.21 75.0442ZM391.48 75.384C390.397 75.384 389.384 75.2232 388.436 74.9073L387.804 76.8047C388.968 77.1928 390.195 77.384 391.48 77.384V75.384ZM388.436 74.9073C387.71 74.6652 387.019 74.0569 386.422 72.8648L384.634 73.7592C385.381 75.2551 386.418 76.3428 387.804 76.8047L388.436 74.9073ZM386.426 72.8719L381.674 63.1759L379.878 64.0561L384.63 73.7521L386.426 72.8719ZM381.676 63.1804C381.2 62.1966 380.773 61.2785 380.394 60.4259L378.566 61.2381C378.955 62.1135 379.392 63.0514 379.876 64.0516L381.676 63.1804ZM380.399 60.4381C380.021 59.5548 379.609 58.5416 379.164 57.3976L377.3 58.1224C377.751 59.2824 378.171 60.3172 378.561 61.2259L380.399 60.4381ZM378.068 56.7736L377.78 56.8216L378.108 58.7944L378.396 58.7464L378.068 56.7736ZM376.947 57.8819C377.073 59.5845 377.136 61.3198 377.136 63.088H379.136C379.136 61.2722 379.071 59.4875 378.941 57.7341L376.947 57.8819ZM377.136 63.1059C377.168 64.8921 377.184 66.6462 377.184 68.368H379.184C379.184 66.6338 379.168 64.8679 379.136 63.0701L377.136 63.1059ZM377.184 68.368V75.808H379.184V68.368H377.184ZM377.921 74.8432C377.638 74.9205 377.15 75.0096 376.423 75.1044L376.681 77.0876C377.426 76.9904 378.026 76.8875 378.447 76.7728L377.921 74.8432ZM376.417 75.1052C375.757 75.1951 375.098 75.24 374.44 75.24V77.24C375.19 77.24 375.939 77.1889 376.687 77.0868L376.417 75.1052ZM374.44 75.24C373.779 75.24 373.215 75.1948 372.742 75.1112L372.394 77.0808C373.009 77.1892 373.693 77.24 374.44 77.24V75.24ZM372.742 75.1112C372.33 75.0386 372.051 74.9046 371.857 74.746L370.591 76.294C371.101 76.7114 371.718 76.9614 372.394 77.0808L372.742 75.1112ZM371.857 74.746C371.653 74.579 371.474 74.3414 371.336 73.9966L369.48 74.7394C369.726 75.3546 370.091 75.885 370.591 76.294L371.857 74.746ZM371.344 74.0169C371.209 73.6563 371.12 73.1306 371.12 72.4H369.12C369.12 73.2694 369.223 74.0557 369.472 74.7191L371.344 74.0169ZM371.12 72.4V48.4H369.12V72.4H371.12ZM370.939 48.9735C371.238 48.5463 371.73 48.1744 372.51 47.9054L371.858 46.0146C370.782 46.3856 369.898 46.9737 369.301 47.8265L370.939 48.9735ZM372.51 47.9054C373.325 47.6242 374.207 47.48 375.16 47.48V45.48C374.001 45.48 372.899 45.6558 371.858 46.0146L372.51 47.9054ZM375.16 47.48C376.234 47.48 377.238 47.6537 378.178 47.9958L378.862 46.1162C377.69 45.6903 376.454 45.48 375.16 45.48V47.48ZM378.212 48.0074C378.975 48.2542 379.658 48.8514 380.213 49.9904L382.011 49.1136C381.286 47.6286 380.241 46.5618 378.828 46.1046L378.212 48.0074ZM380.216 49.9957L385.016 59.6917L386.808 58.8043L382.008 49.1083L380.216 49.9957ZM385.012 59.6836C385.486 60.6636 385.912 61.5936 386.289 62.4739L388.127 61.6861C387.736 60.7744 387.298 59.8164 386.812 58.8124L385.012 59.6836ZM386.294 62.4861C386.67 63.3321 387.08 64.325 387.524 65.4664L389.388 64.7416C388.936 63.579 388.514 62.5559 388.122 61.6739L386.294 62.4861ZM388.652 66.0846L388.892 66.0366L388.5 64.0754L388.26 64.1234L388.652 66.0846ZM389.693 64.9821C389.567 63.2725 389.487 61.563 389.456 59.8535L387.456 59.8905C387.489 61.637 387.569 63.3835 387.699 65.1299L389.693 64.9821ZM389.456 59.8535C389.424 58.1317 389.408 56.4098 389.408 54.688H387.408C387.408 56.4222 387.424 58.1563 387.456 59.8905L389.456 59.8535ZM389.408 54.688V46.912H387.408V54.688H389.408ZM388.671 47.8768C388.958 47.7984 389.434 47.7093 390.127 47.6148L389.857 45.6332C389.142 45.7307 388.562 45.8336 388.145 45.9472L388.671 47.8768ZM390.121 47.6156C390.817 47.5249 391.494 47.48 392.152 47.48V45.48C391.402 45.48 390.639 45.5311 389.863 45.6324L390.121 47.6156ZM392.152 47.48C393.464 47.48 394.299 47.7228 394.797 48.0689L395.939 46.4271C394.965 45.7492 393.656 45.48 392.152 45.48V47.48ZM394.822 48.0856C395.11 48.2735 395.472 48.8291 395.472 50.32H397.472C397.472 48.6749 397.098 47.1825 395.914 46.4104L394.822 48.0856ZM395.472 50.32V74.992H397.472V50.32H395.472Z" fill="#FFDF36" mask="url(#path-25-outside-13_1_19)"/>
</svg>
